<svg width="24" height="24" viewBox="0 0 24 24" fill="none" xmlns="http://www.w3.org/2000/svg">
<path d="M24.0025 12.001C24.0024 9.70711 23.345 7.46133 22.108 5.52958C20.8711 3.59783 19.1064 2.06103 17.023 1.10119C14.9397 0.141354 12.6249 -0.201317 10.3528 0.113762C8.08067 0.42884 5.94646 1.38847 4.20289 2.879C2.45931 4.36953 1.17943 6.32852 0.514802 8.52397C-0.149825 10.7194 -0.171348 13.0594 0.45278 15.2667C1.07691 17.474 2.32054 19.4562 4.0364 20.9785C5.75226 22.5009 7.86846 23.4996 10.1344 23.8564V15.468H7.07806V12.001H10.1344V9.35713C10.1344 6.34881 11.9123 4.6882 14.6593 4.6882C15.5593 4.70079 16.4572 4.77923 17.3458 4.92289V7.87608H15.8327C14.341 7.87608 13.877 8.80062 13.877 9.75006V12.001H17.2053L16.6719 15.468H13.877V23.8546C16.6995 23.4076 19.27 21.9683 21.1261 19.7954C22.9821 17.6225 24.0021 14.8587 24.0025 12.001Z" fill="#4676ED"/>
<path d="M16.6727 15.4675L17.2061 11.9987H13.8778V9.7496C13.8778 8.80017 14.3418 7.87563 15.8335 7.87563H17.3466V4.92244C16.458 4.77878 15.5601 4.70034 14.6601 4.68774C11.9131 4.68774 10.1352 6.34836 10.1352 9.35667V12.0005H7.07886V15.4675H10.1352V23.8542C11.3781 24.0486 12.6437 24.0486 13.8867 23.8542V15.4675H16.6727Z" fill="white"/>
</svg>
