<svg width="24" height="24" viewBox="0 0 24 24" fill="none" xmlns="http://www.w3.org/2000/svg">
<path fill-rule="evenodd" clip-rule="evenodd" d="M1.32031 6.61936C1.81989 5.54263 2.52584 4.60321 3.35362 3.75312C5.22681 1.82934 7.49484 0.597335 10.1796 0.177127C13.9373 -0.411062 17.3004 0.457137 20.2068 2.90922C20.3904 3.06418 20.4357 3.15475 20.236 3.34632C19.2102 4.33054 18.2007 5.33095 17.1851 6.32542C17.0809 6.42746 17.0106 6.552 16.8256 6.38582C14.2668 4.08869 10.0903 4.11486 7.37136 6.59241C6.43792 7.44301 5.77414 8.46237 5.33956 9.63088C5.27614 9.59021 5.2095 9.55392 5.1497 9.5088C3.8728 8.54617 2.59662 7.58263 1.32031 6.61936Z" fill="#D7282A"/>
<path fill-rule="evenodd" clip-rule="evenodd" d="M5.31175 14.3223C5.67851 15.235 6.13434 16.0981 6.81173 16.8311C8.5342 18.695 10.6693 19.499 13.2274 19.2388C14.416 19.1179 15.4989 18.7235 16.5108 18.1174C16.608 18.2024 16.7003 18.2933 16.8026 18.3716C17.9868 19.2776 19.1726 20.1816 20.3579 21.0861C19.0509 22.3024 17.5076 23.1121 15.7716 23.5422C11.6784 24.5559 7.90549 23.9152 4.55508 21.3246C3.16996 20.2536 2.08048 18.9306 1.3125 17.3646C2.64572 16.3505 3.97873 15.3363 5.31175 14.3223Z" fill="#45AC43"/>
<path fill-rule="evenodd" clip-rule="evenodd" d="M20.357 21.0862C19.1717 20.1817 17.9859 19.2776 16.8017 18.3718C16.6994 18.2934 16.607 18.2025 16.5099 18.1175C17.3124 17.5174 17.9821 16.8076 18.4219 15.9058C18.5972 15.5463 18.7205 15.1699 18.837 14.7894C18.9173 14.5271 18.8925 14.425 18.5612 14.4278C16.5885 14.4442 14.6156 14.436 12.6427 14.4359C12.2248 14.4359 12.2245 14.4356 12.2245 14.0122C12.2243 12.702 12.2309 11.3918 12.2188 10.0816C12.2165 9.82891 12.2617 9.73183 12.552 9.73267C16.1908 9.74305 19.8297 9.74079 23.4686 9.73596C23.665 9.7357 23.7885 9.75001 23.8226 9.98413C24.2754 13.1025 23.9125 16.0821 22.2467 18.8341C21.7367 19.6765 21.124 20.446 20.357 21.0862Z" fill="#5D7FBE"/>
<path fill-rule="evenodd" clip-rule="evenodd" d="M5.30908 14.3223C3.97607 15.3364 2.64305 16.3505 1.3099 17.3646C0.658883 16.1787 0.283378 14.9047 0.108125 13.5777C-0.195411 11.2786 0.138189 9.06657 1.13353 6.95702C1.1882 6.84112 1.25747 6.73187 1.3199 6.61938C2.59621 7.58253 3.87239 8.54613 5.14929 9.50863C5.20909 9.55369 5.27573 9.59005 5.33915 9.63072C4.80451 11.1915 4.83115 12.7554 5.30908 14.3223Z" fill="#F4C300"/>
</svg>
