<svg width="324" height="212" viewBox="0 0 324 212" fill="none" xmlns="http://www.w3.org/2000/svg">
<path d="M248.596 127.499C248.596 127.499 243.695 127.34 242.225 127.031C240.754 126.721 239.639 126.528 239.639 126.528C239.639 126.528 229.486 130.717 225.72 136.481C221.953 142.244 218.914 154.954 218.914 154.954C218.914 154.954 217.121 170.75 216.619 176.026C216.193 180.51 215.158 193.984 215.158 193.984L212 204.659L213.147 205H277.999L278.596 204.605L278.986 155.968C278.986 155.968 279.199 145.747 277.973 143.086C276.746 140.424 275.146 133.448 271.898 130.636C268.652 127.825 264.483 124.562 258.962 125.048C256.629 126.281 252.683 127.408 251.345 127.41C250.007 127.412 248.596 127.499 248.596 127.499Z" fill="#FFBF31"/>
<path d="M277.565 142.569C276.845 139.716 274.961 133.332 271.689 130.519C268.416 127.706 264.45 125.086 259.522 125C258.795 125.381 257.912 125.753 257 126.083C261.813 126.512 266.612 129.242 269.378 131.712C272.332 134.348 274.784 141.215 275.501 144.169C276.193 147.028 276.482 153.826 276.522 157.059C276.669 169.044 276.135 205 276.135 205H278.71L278.552 201.932C278.552 201.932 279.228 167.742 278.919 155.46C278.838 152.221 278.536 146.414 277.566 142.569L277.565 142.569Z" fill="white"/>
<path d="M237.993 75.6645C243.835 72.7462 252.345 72.33 258.705 75.2916C268.049 79.6433 270.354 86.8356 270.589 94.5414C270.883 104.177 266.763 112.489 257.207 115.593C251.169 114.306 247.816 108.752 247.446 106.009L244.187 98.1408C236.718 93.9617 234.821 89.7016 233.095 83.7464C232.51 81.7276 231.122 78.1625 232.513 76.5795C233.401 75.5688 236.627 76.3464 237.994 75.6637L237.993 75.6645Z" fill="white"/>
<path d="M233.324 84.9148C232.589 86.2296 232.315 87.5461 232.227 88.1929C232.227 88.1929 231.45 93.6705 231.253 95.5037C231 97.8546 230.322 99.0394 229.519 99.6412C228.512 100.397 227.556 100.626 227.464 101.566C227.372 102.506 228.72 103.26 229.358 103.344C229.555 103.371 230.139 103.497 230.139 103.497C230.995 111.589 231.867 117.153 239.243 118.472C239.243 118.472 240.455 118.422 240.367 119.138C240.279 119.854 240.701 125.403 239.356 127.073C241.749 127.423 253.736 129.146 259.487 124.648C258.056 121.364 256.921 116.535 256.766 115.568C251.101 112.823 247.896 110.687 247.473 105.712C250.376 103.234 249.973 100.757 248.145 98.79C246.318 96.8235 245.261 98.947 243.093 97.5046C240.925 96.0622 233.954 90.8487 233.322 84.9148H233.324Z" fill="white"/>
<path d="M245.326 106.957C245.113 106.957 244.897 106.942 244.68 106.913C243.976 106.816 243.32 106.57 242.73 106.183C242.493 106.026 242.427 105.708 242.582 105.47C242.738 105.232 243.056 105.165 243.294 105.322C243.756 105.625 244.269 105.817 244.82 105.893C246.845 106.172 248.716 104.748 248.995 102.719C249.272 100.691 247.851 98.8145 245.827 98.5357C245.32 98.4662 244.815 98.4997 244.326 98.6371C244.053 98.714 243.769 98.5537 243.693 98.2798C243.616 98.0059 243.776 97.7213 244.049 97.6453C244.674 97.4703 245.32 97.4261 245.968 97.5153C248.553 97.8709 250.368 100.268 250.013 102.859C249.688 105.232 247.653 106.957 245.327 106.958L245.326 106.957Z" fill="#2E2E2E"/>
<path d="M247.446 102.929C247.421 102.929 247.396 102.928 247.37 102.924C247.089 102.882 246.896 102.62 246.937 102.338C247.017 101.809 246.882 101.307 246.57 100.962C246.261 100.621 245.795 100.447 245.256 100.474C244.97 100.487 244.732 100.27 244.717 99.9854C244.703 99.7017 244.921 99.4597 245.205 99.445C246.057 99.4025 246.812 99.6951 247.331 100.269C247.852 100.844 248.079 101.653 247.954 102.49C247.916 102.745 247.697 102.929 247.446 102.929V102.929Z" fill="#2E2E2E"/>
<path d="M233.678 96.6262C233.557 97.5067 233.878 98.2776 234.393 98.3487C234.909 98.4199 235.424 97.7634 235.545 96.8829C235.666 96.0024 235.345 95.2314 234.83 95.1603C234.314 95.0892 233.799 95.7457 233.678 96.6262Z" fill="#2E2E2E"/>
<path d="M236.294 91.8419C236.236 91.8419 236.175 91.8313 236.117 91.81C234.997 91.3955 233.883 91.2696 232.81 91.4356C232.529 91.4789 232.267 91.286 232.224 91.0047C232.181 90.7235 232.373 90.4611 232.654 90.4177C233.903 90.2248 235.187 90.3687 236.473 90.8437C236.739 90.9418 236.875 91.2386 236.777 91.5051C236.701 91.7127 236.504 91.8419 236.295 91.8419H236.294Z" fill="#2E2E2E"/>
<path d="M241.664 119.256C241.05 119.256 240.572 119.211 240.189 119.158C236.195 118.611 233.47 116.929 231.857 114.014C230.323 111.242 229.878 107.546 229.652 103.922C229.501 103.891 229.359 103.864 229.292 103.855C228.432 103.742 226.826 102.813 226.953 101.516C227.045 100.588 227.745 100.161 228.421 99.7491C228.678 99.5921 228.944 99.4302 229.212 99.2299C230.023 98.6215 230.538 97.35 230.742 95.4498C230.938 93.6288 231.711 88.1765 231.718 88.1217C231.793 87.5722 232.058 86.1298 232.875 84.6646C233.014 84.416 233.327 84.3277 233.574 84.4667C233.822 84.6057 233.911 84.9197 233.772 85.1674C233.04 86.4798 232.803 87.7701 232.736 88.2648C232.727 88.322 231.957 93.7572 231.763 95.5601C231.524 97.7867 230.89 99.2569 229.826 100.054C229.519 100.285 229.218 100.468 228.954 100.629C228.32 101.015 228.014 101.218 227.975 101.617C227.923 102.151 228.928 102.769 229.425 102.834C229.637 102.862 230.186 102.981 230.248 102.994L230.63 103.077L230.653 103.468C230.864 107.095 231.265 110.822 232.754 113.514C234.219 116.162 236.626 117.631 240.327 118.138C240.912 118.218 242.694 118.462 246.567 117.515C246.844 117.448 247.121 117.617 247.188 117.893C247.255 118.17 247.086 118.449 246.811 118.516C244.437 119.096 242.811 119.256 241.661 119.256H241.664Z" fill="#2E2E2E"/>
<path d="M260.065 125.508C259.941 125.508 259.816 125.463 259.718 125.372C258.008 123.798 256.911 120.43 256.628 115.888C256.61 115.605 256.825 115.36 257.109 115.342C257.393 115.323 257.636 115.54 257.654 115.824C257.916 120.037 258.921 123.241 260.413 124.613C260.622 124.805 260.636 125.131 260.444 125.341C260.343 125.451 260.204 125.508 260.065 125.508Z" fill="#2E2E2E"/>
<path d="M239.699 127.207C239.623 127.207 239.546 127.19 239.474 127.154C239.218 127.029 239.113 126.721 239.237 126.466C239.932 125.038 240.098 122.497 239.745 118.696C239.719 118.413 239.926 118.162 240.21 118.135C240.491 118.108 240.742 118.317 240.768 118.601C241.005 121.149 241.199 124.784 240.161 126.918C240.072 127.101 239.889 127.208 239.698 127.208L239.699 127.207Z" fill="#2E2E2E"/>
<path d="M233.61 204.958C233.567 204.958 233.523 204.953 233.479 204.941C233.204 204.868 233.041 204.587 233.114 204.313C233.341 203.453 233.607 202.674 233.887 201.849C234.481 200.11 235.093 198.313 235.475 195.398C237.098 183.005 238.863 163.046 238.881 162.845C238.906 162.563 239.155 162.355 239.436 162.379C239.719 162.404 239.927 162.653 239.902 162.935C239.884 163.136 238.118 183.117 236.493 195.531C236.098 198.549 235.439 200.478 234.858 202.181C234.583 202.988 234.323 203.75 234.106 204.575C234.046 204.805 233.838 204.958 233.611 204.958L233.61 204.958Z" fill="#2E2E2E"/>
<path d="M211.542 204.958C211.473 204.958 211.402 204.944 211.334 204.914C211.075 204.799 210.959 204.495 211.074 204.235C211.09 204.198 212.75 200.419 214.221 193.811C214.605 190.327 214.924 186.167 215.262 181.764C216.139 170.309 217.134 157.325 219.772 147.977C221.652 141.315 224.054 136.846 227.559 133.483C230.686 130.485 234.293 128.69 239.438 126.294L239.606 126.215L239.786 126.262C246.601 128.078 253.643 127.464 259.614 124.531C259.869 124.406 260.175 124.512 260.3 124.767C260.425 125.022 260.32 125.329 260.065 125.455C253.925 128.47 246.699 129.125 239.701 127.303C230.659 131.515 224.674 134.376 220.758 148.256C218.148 157.505 217.158 170.434 216.283 181.842C215.944 186.265 215.624 190.444 215.237 193.951L215.228 194.006C213.731 200.742 212.08 204.496 212.01 204.652C211.925 204.844 211.738 204.957 211.541 204.957L211.542 204.958Z" fill="#2E2E2E"/>
<path d="M257.235 116.126L257.101 116.097C253.588 115.348 251.199 113.284 249.813 111.685C247.962 109.548 247.114 107.387 246.937 106.078C246.899 105.796 247.096 105.537 247.378 105.498C247.658 105.461 247.918 105.658 247.956 105.94C248.289 108.409 251.428 113.762 257.18 115.06C265.689 112.234 270.387 104.77 270.076 94.5569C269.883 88.2273 268.392 80.3702 258.488 75.7585C252.603 73.0176 246.17 73.787 238.322 75.7863C236.657 76.2106 234.968 76.5058 233.302 76.6636C232.987 76.6939 232.714 76.8157 232.574 76.9899C232.486 77.0986 232.453 77.2246 232.47 77.3767C232.649 78.9392 232.989 81.2901 233.592 83.6172C235.203 89.8283 237.322 93.7098 244.437 97.6911C244.685 97.8301 244.773 98.1432 244.635 98.3918C244.497 98.6404 244.184 98.7295 243.936 98.5905C240.303 96.5578 237.782 94.4392 236.004 91.9248C234.172 89.3352 233.285 86.5257 232.598 83.8764C231.979 81.492 231.632 79.0897 231.448 77.4944C231.399 77.0651 231.512 76.6669 231.775 76.3415C232.091 75.9506 232.612 75.6947 233.205 75.6383C234.818 75.4854 236.454 75.1992 238.068 74.7879C244.566 73.1329 252.071 71.6349 258.921 74.8247C263.393 76.9073 266.531 79.7169 268.515 83.4152C270.141 86.4455 270.963 89.9763 271.102 94.5258C271.43 105.282 266.423 113.14 257.365 116.084L257.234 116.126L257.235 116.126Z" fill="#2E2E2E"/>
<path d="M234.377 111.396C233.745 111.396 233.11 111.296 232.508 111.091C232.239 110.999 232.095 110.707 232.186 110.438C232.277 110.169 232.57 110.024 232.838 110.116C234.338 110.627 236.078 110.348 237.271 109.406C237.493 109.23 237.816 109.268 237.993 109.492C238.168 109.715 238.131 110.039 237.907 110.215C236.931 110.987 235.658 111.396 234.376 111.396H234.377Z" fill="#2E2E2E"/>
<path d="M278.44 205.479C278.44 205.479 278.435 205.479 278.433 205.479C278.157 205.475 277.936 205.24 277.94 204.954C277.946 204.556 278.503 165.044 278.274 151.951C277.954 133.571 268.515 126.242 259.788 125.512C259.513 125.489 259.308 125.239 259.33 124.955C259.353 124.67 259.593 124.458 259.869 124.481C262.501 124.701 264.982 125.435 267.243 126.664C269.585 127.936 271.646 129.716 273.369 131.953C275.176 134.299 276.594 137.131 277.584 140.37C278.631 143.796 279.199 147.686 279.273 151.932C279.502 165.042 278.945 204.572 278.939 204.97C278.935 205.253 278.712 205.479 278.44 205.479Z" fill="#2E2E2E"/>
<path d="M72.4769 84.4364C69.1934 78.1916 68.1307 69.4085 72.0457 61.8548C79.2661 47.9216 94.719 50.1424 102.603 53.0411C106.478 54.4656 111.297 57.7945 112.866 62.1378C113.893 64.983 113.993 68.832 112.584 69.8148C109.29 72.1131 97.4282 69.3339 91.2199 66.9046C89.789 66.3444 87.6837 67.33 87.3641 68.8358C86.1269 74.6667 83.2116 81.7088 81.877 81.5587C80.6741 81.4239 80.884 80.0597 79.6839 79.2375L72.4769 84.4345V84.4364Z" fill="#2E2E2E"/>
<path d="M112.87 62.1375C111.3 57.7943 106.482 54.4653 102.607 53.0408C99.2617 51.8104 94.5531 50.7033 89.688 50.9003C93.7136 51.058 97.4931 52.0064 100.308 53.0408C104.183 54.4653 109.001 57.7943 110.571 62.1375C111.598 64.9827 111.698 68.8317 110.289 69.8145C109.603 70.2935 108.542 70.5487 107.241 70.6367C109.591 70.7648 111.53 70.5516 112.587 69.8145C113.996 68.8317 113.897 64.9827 112.869 62.1375H112.87Z" fill="white"/>
<path d="M84.6228 51.6021C84.8212 46.211 77.9137 42.1832 70.4825 47.5542C62.9626 52.9893 63.3747 63.3594 71.0015 63.5392L84.6228 51.6021Z" fill="#2E2E2E"/>
<path d="M84.8039 51.6021C85.0023 46.211 78.0949 42.1832 70.6636 47.5542C70.2639 47.843 69.889 48.146 69.5342 48.4606C76.8404 43.4376 82.8006 47.0686 82.6051 52.3803L84.8039 51.6031V51.6021Z" fill="white"/>
<path d="M69.5571 109.456C73.8241 112.501 76.5018 114.053 80.5227 114.59C84.5435 115.127 87.1125 115.28 89.0156 114.59C90.9178 113.9 92.8371 113.393 92.8371 113.393C92.8371 113.393 100.651 117.577 102.411 118.633C104.171 119.688 114.78 128.498 118.219 132.512C121.658 136.526 134.808 151.602 134.808 151.602L163.978 128.568L178.721 144.054C178.721 144.054 154.055 167.931 149.189 171.602C144.323 175.273 139.185 178.805 136.206 179.513C133.227 180.22 130.934 180.705 128.923 180.086C126.912 179.467 121.239 176.546 121.239 176.546L110.736 168.374L109.109 177.218L107.762 198.902L107.444 205.456L107.069 205.431L52.3432 205.448L42.9831 205.426L43.4782 199.265L43.2026 198.634C43.2026 198.634 28.9411 196.438 25.2589 194.738C21.5767 193.038 18.6157 191.541 17.346 186.843C16.0763 182.146 16.7889 177.274 17.7094 173.231C18.63 169.188 21.6254 158.513 23.5103 153.11C25.3953 147.706 31.9718 135.97 33.7309 133.433C35.4899 130.897 41.3233 123.93 44.2147 121.354C47.1061 118.779 56.4013 113.612 58.9722 113.111C61.543 112.611 66.1382 110.442 66.1382 110.442L69.5581 109.456H69.5571Z" fill="#9F54F8"/>
<path d="M134.136 150.912C134.136 150.912 121.658 136.232 118.219 132.262C114.78 128.292 104.171 119.577 102.412 118.533C100.652 117.489 93.0802 113 93.0802 113C93.0802 113 91.1609 113.501 89.2587 114.183C87.3566 114.866 90.4483 114.174 90.4483 114.174C90.4483 114.174 98.7028 119.155 100.463 120.198C102.223 121.242 110.99 127.799 116.271 133.926C119.699 137.905 124.359 142.949 129.585 147.429C131.149 148.771 134.137 150.911 134.137 150.911L134.136 150.912Z" fill="white"/>
<path d="M108.35 165.39C107.797 168.807 106.244 179.075 106.244 179.075L104.897 200.898L104.805 205.444L107.129 205.417L107.089 198.848L108.436 177.024L110.062 168.123C110.062 168.123 112.13 159.357 111.564 156.391C111.564 151.557 109.994 144.54 109.558 145.54C110.525 152.601 109.145 160.484 108.35 165.39Z" fill="white"/>
<path d="M110.53 70.6951C110.53 70.6951 104.57 71.5316 89.8809 66.8203C89.0528 66.5545 88.1571 66.934 87.869 67.7572C86.4066 71.937 84.5092 79.9457 81.9174 81.439C80.8404 82.0595 81.1571 79.2927 79.2969 79.025C75.2827 78.5413 73.5589 79.9992 73.1812 81.1866C72.8044 82.374 72.5401 82.1111 72.8044 83.9935C73.0686 85.8769 74.5195 87.3674 76.0182 87.8808C77.5178 88.3932 76.4751 88.5873 76.4751 88.5873C76.4751 88.5873 74.2439 98.7222 74.0283 99.6113C73.8127 100.501 71.1397 106.988 70.6246 107.612C70.1095 108.237 69.6401 109.542 69.6401 109.542C69.6401 109.542 73.7736 113.174 78.5147 114.146C83.2548 115.117 85.8781 115.548 88.1037 114.897C90.3292 114.246 92.2247 112.472 92.2247 112.472C92.2247 112.472 92.7875 108.998 93.0327 107.424C93.2779 105.85 94.3491 104.373 94.3491 104.373C94.3491 104.373 97.4494 105.156 100.681 103.402C103.913 101.648 105.731 98.9794 106.42 96.8398C107.11 94.7002 108.302 88.6274 108.302 88.6274L110.529 70.6941L110.53 70.6951Z" fill="white"/>
<path d="M177.959 138.198L177.912 138.179C176.648 137.659 176.055 136.2 176.598 134.943L196.988 87.6984L208.81 60.7793C208.977 60.3988 209.416 60.221 209.801 60.3788L209.815 60.3845C210.2 60.5422 210.388 60.9792 210.24 61.3673L199.716 89.0015L181.164 136.821C180.669 138.099 179.225 138.719 177.96 138.199L177.959 138.198Z" fill="#C1C7D6"/>
<path d="M178.887 138.985C178.496 138.985 178.105 138.908 177.731 138.754L177.684 138.735C176.923 138.422 176.333 137.828 176.022 137.064C175.712 136.299 175.72 135.462 176.047 134.705L196.437 87.4603L208.26 60.5374C208.561 59.8529 209.337 59.5393 210.028 59.8232L210.041 59.8289C210.732 60.1129 211.065 60.8835 210.799 61.5823L200.275 89.2165L181.721 137.04C181.423 137.81 180.842 138.412 180.085 138.737C179.7 138.903 179.294 138.986 178.886 138.986L178.887 138.985ZM209.51 60.9217C209.446 60.9217 209.386 60.959 209.359 61.0211L197.537 87.9402L177.149 135.181C176.951 135.64 176.946 136.147 177.134 136.61C177.322 137.073 177.68 137.432 178.141 137.623L178.188 137.642C178.65 137.831 179.156 137.827 179.614 137.63C180.073 137.433 180.425 137.068 180.605 136.602L199.157 88.7825L209.68 61.1521C209.712 61.067 209.672 60.9733 209.588 60.9389L209.575 60.9332C209.554 60.9246 209.532 60.9207 209.511 60.9207L209.51 60.9217Z" fill="#2E2E2E"/>
<path d="M193.679 124.988C193.651 123.792 192.564 122.7 191.398 122.308L191.335 121.667C195.075 120.833 194.248 116.324 190.915 115.864L190.877 115.298C191.713 114.986 192.108 114.608 192.197 114.091C192.969 109.636 185.419 111.649 180.827 112.777C168.08 115.907 166.504 127.411 164.965 129.396L176.259 141.129C180.078 138.175 187.072 138.349 188.863 138.317C191.136 138.275 192.653 137.456 192.928 135.712C193.109 134.568 192.111 133.578 191.117 133.323L191.123 133.164C194.538 132.078 193.996 128.91 191.309 128.055L191.313 127.924C193.005 127.528 193.713 126.517 193.678 124.988H193.679Z" fill="white"/>
<path d="M92.4 98.7272C90.6162 97.9872 89.7767 96.8295 89.5726 95.3457C89.4171 94.2118 89.5373 93.6468 90.0543 93.4776C90.7087 93.2634 92.0242 94.0646 94.0942 95.0159C95.6053 95.7099 97.9568 96.1411 97.8413 97.3562C97.7421 98.4031 95.2342 99.9031 92.4 98.7272Z" fill="#2E2E2E"/>
<path d="M89.792 95.99C91.1969 95.2158 94.4121 95.8075 94.1632 98.8921C92.1688 98.7181 90.0323 96.8647 89.792 95.99Z" fill="white"/>
<path d="M94.5855 99.5962C93.809 99.5962 92.9953 99.4327 92.2035 99.1039C90.3271 98.3256 89.252 97.0264 89.0059 95.2424C88.9324 94.709 88.7378 93.2931 90.038 92.8676C90.8193 92.6114 91.7694 93.056 93.4942 93.8629C93.7708 93.9919 94.0665 94.1306 94.3832 94.2768C94.6771 94.4116 94.9919 94.5397 95.3257 94.6745C96.7509 95.2529 98.3659 95.9078 98.2314 97.3285C98.1742 97.9308 97.7268 98.5274 97.0047 98.9624C96.3064 99.384 95.4707 99.5962 94.5864 99.5962H94.5855ZM92.6681 97.9786C94.6523 98.8018 96.0088 98.1411 96.377 97.9193C96.8606 97.6277 97.0094 97.3304 97.0209 97.2138C97.0695 96.6966 95.8504 96.2023 94.8698 95.8046C94.5378 95.6698 94.1953 95.5312 93.8767 95.3849C93.5571 95.2377 93.2585 95.0981 92.98 94.9681C91.8286 94.4298 90.7411 93.9202 90.4158 94.0273C90.2822 94.0713 90.081 94.1373 90.2107 95.078C90.3977 96.4394 91.179 97.362 92.669 97.9796L92.6681 97.9786Z" fill="#2E2E2E"/>
<path d="M94.8288 99.1558L93.65 98.8576C93.9599 97.6264 93.4201 96.9515 92.9127 96.6026C92.0905 96.0377 90.8487 95.9861 90.1429 96.487L89.4399 95.4929C90.5635 94.6947 92.3519 94.7396 93.5994 95.597C94.7506 96.3885 95.1989 97.6847 94.8288 99.1548V99.1558Z" fill="#2E2E2E"/>
<path d="M176.261 141.73C176.082 141.73 175.904 141.649 175.786 141.495C175.584 141.232 175.632 140.855 175.894 140.652C179.594 137.79 185.984 137.738 188.389 137.719C188.57 137.718 188.725 137.716 188.854 137.714C190.952 137.676 192.124 136.97 192.337 135.617C192.404 135.193 192.217 134.842 192.048 134.621C191.741 134.22 191.229 133.916 190.774 133.864L186.948 133.582C185.292 133.427 183.897 132.75 183.122 131.722C182.64 131.083 182.445 130.353 182.571 129.664C182.91 127.829 184.15 126.991 186.471 127.024C186.802 127.029 187.066 127.302 187.062 127.634C187.057 127.963 186.79 128.226 186.463 128.226C186.46 128.226 186.457 128.226 186.454 128.226C184.473 128.198 183.938 128.867 183.751 129.883C183.668 130.336 183.884 130.739 184.08 130.997C184.643 131.745 185.756 132.263 187.055 132.386L190.894 132.67C191.681 132.754 192.489 133.222 193.001 133.892C193.442 134.468 193.627 135.147 193.523 135.806C193.344 136.94 192.503 138.852 188.877 138.918C188.745 138.92 188.585 138.922 188.401 138.923C186.106 138.941 180.009 138.991 176.628 141.605C176.52 141.689 176.39 141.731 176.262 141.731L176.261 141.73Z" fill="#2E2E2E"/>
<path d="M190.893 133.835C190.63 133.835 190.388 133.66 190.315 133.393C190.227 133.073 190.415 132.742 190.734 132.654C192.081 132.282 192.893 131.53 192.91 130.64C192.925 129.774 192.204 128.964 191.116 128.622C190.828 128.531 190.635 128.26 190.647 127.964C190.658 127.665 190.872 127.41 191.167 127.341C192.519 127.027 193.11 126.305 193.079 125.001C193.055 123.905 191.771 122.882 190.725 122.766C190.328 122.722 190.134 122.437 190.117 122.175C190.102 121.93 190.235 121.608 190.659 121.506C190.848 121.46 191.039 121.51 191.179 121.624C192.676 121.944 194.24 123.309 194.278 124.974C194.311 126.392 193.757 127.438 192.662 128.054C193.575 128.692 194.127 129.644 194.109 130.662C194.083 132.115 192.941 133.293 191.052 133.814C190.999 133.828 190.945 133.836 190.893 133.836V133.835Z" fill="#2E2E2E"/>
<path d="M164.966 129.996C164.838 129.996 164.708 129.955 164.599 129.87C164.338 129.666 164.29 129.289 164.493 129.027C164.755 128.689 165.077 127.87 165.451 126.921C166.249 124.893 167.456 121.828 169.75 118.986C172.495 115.587 176.173 113.302 180.685 112.194L181.162 112.076C185.184 111.084 190.19 109.849 192.103 111.638C192.748 112.241 192.979 113.101 192.789 114.194C192.519 115.753 190.62 116.245 186.181 116.822C185.852 116.865 185.551 116.633 185.509 116.303C185.468 115.973 185.698 115.672 186.027 115.63C189.372 115.196 191.473 114.769 191.608 113.988C191.783 112.982 191.409 112.633 191.286 112.518C189.846 111.172 184.59 112.469 181.45 113.243L180.971 113.361C171.128 115.778 168.16 123.314 166.566 127.363C166.125 128.483 165.807 129.291 165.439 129.765C165.321 129.917 165.145 129.997 164.965 129.997L164.966 129.996Z" fill="#2E2E2E"/>
<path d="M323.487 206H0.512556C0.229795 206 0 205.777 0 205.5C0 205.223 0.22898 205 0.512556 205H323.487C323.77 205 324 205.223 324 205.5C324 205.777 323.771 206 323.487 206Z" fill="#2E2E2E"/>
<path d="M190.713 122.411C190.713 122.411 188.091 122.238 187.216 122.181C184.73 122.021 182.149 121.524 181.856 119.057C181.79 118.504 181.989 117.95 182.43 117.457C183.654 116.091 186.64 115.266 190.23 115.307C190.561 115.31 190.826 115.582 190.823 115.914C190.819 116.245 190.546 116.516 190.216 116.508C186.574 116.469 184.13 117.358 183.323 118.26C183.116 118.491 183.023 118.712 183.048 118.915C183.152 119.789 183.574 120.741 187.294 120.982C188.168 121.038 190.792 121.211 190.792 121.211L190.712 122.41L190.713 122.411Z" fill="#2E2E2E"/>
<path d="M186.805 138.776C186.77 138.776 186.734 138.773 186.697 138.767C184.652 138.394 183.343 137.649 182.806 136.554C182.447 135.82 182.478 134.972 182.895 134.167C183.539 132.923 185.403 132.357 188.434 132.488C188.765 132.503 189.022 132.783 189.008 133.115C188.993 133.446 188.714 133.703 188.383 133.689C184.852 133.536 184.105 134.44 183.96 134.721C183.792 135.045 183.643 135.533 183.883 136.025C184.232 136.738 185.308 137.292 186.912 137.584C187.238 137.643 187.454 137.956 187.395 138.283C187.342 138.574 187.089 138.776 186.805 138.776Z" fill="#2E2E2E"/>
<path d="M110.524 166.921C112.652 168.526 119.438 176.268 127.769 178.86C134.234 180.871 142.483 177.059 154.358 166.05C160.42 160.431 178.509 143.467 178.509 143.467L163.766 128.149L134.391 151.094L110.524 166.921Z" fill="#9F54F8"/>
<path d="M131.22 179.977C129.96 179.977 128.754 179.795 127.592 179.434C120.908 177.354 115.168 171.997 112.085 169.117C111.251 168.339 110.593 167.724 110.164 167.401C109.9 167.201 109.847 166.825 110.046 166.56C110.245 166.295 110.621 166.242 110.885 166.441C111.364 166.803 112.043 167.437 112.902 168.239C115.916 171.052 121.525 176.288 127.948 178.287C131.086 179.263 134.628 178.775 138.778 176.795C143.087 174.74 148.05 171.081 153.951 165.61C159.413 160.546 174.836 146.09 177.657 143.446L163.711 128.957L134.761 151.569C134.499 151.773 134.122 151.726 133.919 151.465C133.716 151.203 133.763 150.825 134.023 150.622L163.824 127.344L179.365 143.49L178.921 143.907C178.739 144.076 160.76 160.936 154.766 166.492C148.774 172.047 143.712 175.772 139.293 177.88C136.358 179.281 133.687 179.977 131.22 179.977Z" fill="#2E2E2E"/>
<path d="M95.6953 105.188C94.727 105.188 93.6996 105.11 92.6083 104.953C91.5943 104.808 88.0303 103.938 85.0655 101.927C84.7908 101.741 84.7192 101.368 84.9052 101.092C85.0913 100.818 85.4633 100.745 85.738 100.932C88.5636 102.849 92.0102 103.653 92.7781 103.763C101.079 104.956 105.237 101.546 107.128 91.9986C107.934 87.9287 109.486 75.4611 109.502 75.3358L109.504 75.3253C109.578 74.7995 109.953 70.9935 109.969 70.504C109.981 70.1723 110.258 69.9122 110.589 69.9237C110.92 69.9352 111.18 70.2134 111.168 70.5451C111.15 71.07 110.773 74.9085 110.692 75.4888C110.62 76.0701 109.117 88.1324 108.305 92.2328C107.338 97.1181 105.838 100.361 103.584 102.438C101.587 104.279 98.9883 105.188 95.6953 105.188Z" fill="#2E2E2E"/>
<path d="M77.176 88.7738C76.9185 88.7738 76.66 88.7557 76.4005 88.7184C74.9696 88.5138 73.7037 87.7623 72.8366 86.6036C71.9694 85.4449 71.6041 84.0166 71.8082 82.5825C72.2299 79.6226 74.9772 77.5586 77.9306 77.9802C78.6709 78.0863 79.3663 78.3368 79.9987 78.7268C80.2811 78.9008 80.3689 79.2708 80.1953 79.5538C80.0216 79.8368 79.6525 79.9248 79.3701 79.7508C78.8788 79.4477 78.337 79.2527 77.7608 79.1704C75.4618 78.8416 73.324 80.4487 72.9959 82.7527C72.8366 83.8694 73.1208 84.9803 73.7962 85.8828C74.4716 86.7843 75.4561 87.3694 76.5703 87.5291C77.197 87.6189 77.818 87.5692 78.4171 87.3818C78.7338 87.2834 79.0696 87.4602 79.1679 87.7767C79.2661 88.0931 79.0896 88.4306 78.7739 88.5291C78.2521 88.6926 77.7169 88.7738 77.176 88.7738Z" fill="#2E2E2E"/>
<path d="M74.7751 83.5037C74.7493 83.5037 74.7226 83.5018 74.6969 83.4989C74.3688 83.4559 74.137 83.1538 74.1799 82.825C74.3058 81.8644 74.8094 81.0452 75.5629 80.5758C76.3155 80.1074 77.2387 80.0224 78.1639 80.3388C78.4777 80.4458 78.6446 80.7871 78.5378 81.1016C78.431 81.4161 78.0905 81.5833 77.7767 81.4763C77.1977 81.2784 76.6369 81.3214 76.1953 81.5967C75.748 81.8749 75.4466 82.3805 75.3683 82.9818C75.3292 83.2839 75.0708 83.5047 74.7751 83.5047V83.5037Z" fill="#2E2E2E"/>
<path d="M106.777 83.9031C106.92 82.8997 106.56 82.0181 105.973 81.934C105.386 81.85 104.794 82.5953 104.651 83.5987C104.508 84.6021 104.868 85.4837 105.455 85.5677C106.042 85.6518 106.634 84.9065 106.777 83.9031Z" fill="#2E2E2E"/>
<path d="M109.618 79.3177C109.483 79.3177 109.348 79.2728 109.236 79.18C107.755 77.9544 105.649 77.3139 103.743 77.507C103.412 77.5404 103.119 77.2995 103.086 76.9697C103.053 76.6399 103.293 76.3444 103.622 76.311C105.835 76.0873 108.278 76.8311 109.998 78.2527C110.254 78.464 110.29 78.8426 110.079 79.0988C109.961 79.2431 109.789 79.3177 109.617 79.3177H109.618Z" fill="#2E2E2E"/>
<path d="M91.8292 81.7781C91.6861 82.7818 91.0938 83.5273 90.5062 83.4432C89.9187 83.3591 89.5582 82.4778 89.7012 81.4741C89.8443 80.4704 90.4366 79.7248 91.0242 79.809C91.6117 79.8931 91.9722 80.7744 91.8292 81.7781Z" fill="#2E2E2E"/>
<path d="M87.1364 77.0049C86.9494 77.0049 86.7663 76.9179 86.6489 76.7545C86.4553 76.4849 86.5173 76.1091 86.7863 75.916C88.9422 74.3644 92.2686 74.0508 94.8757 75.1541C95.181 75.2831 95.3241 75.6359 95.1953 75.9418C95.0665 76.2478 94.7145 76.3912 94.4093 76.2621C92.1665 75.3128 89.32 75.5728 87.4865 76.8931C87.3806 76.9696 87.2585 77.0059 87.1374 77.0059L87.1364 77.0049Z" fill="#2E2E2E"/>
<path d="M99.3198 91.3704C99.1558 91.3704 99.006 91.356 98.8782 91.3293C98.5538 91.2604 98.3468 90.9421 98.4155 90.617C98.4842 90.292 98.8018 90.0845 99.1262 90.1533C99.4295 90.2174 100.159 90.1027 100.656 89.7681C100.813 89.6629 101.006 89.4927 101.046 89.2776C101.14 88.7566 100.907 88.42 100.37 87.7078C100.194 87.4745 99.9943 87.2097 99.7911 86.9047C99.1252 85.9095 98.5424 84.5653 98.778 81.5012C98.8038 81.1704 99.0909 80.9228 99.4219 80.9486C99.752 80.9744 99.999 81.2632 99.9733 81.5939C99.7777 84.1427 100.157 85.2938 100.787 86.2365C100.972 86.5127 101.152 86.7518 101.327 86.9831C101.889 87.7279 102.418 88.4306 102.226 89.4927C102.135 89.9899 101.824 90.4306 101.325 90.7662C100.702 91.1849 99.917 91.3704 99.3208 91.3704H99.3198Z" fill="#2E2E2E"/>
<path d="M107.551 205.58C107.546 205.58 107.54 205.58 107.535 205.58C107.204 205.572 106.943 205.296 106.952 204.964C106.958 204.764 107.499 184.915 108.14 177.641C108.307 175.743 108.722 173.506 109.202 170.917C110.211 165.469 111.467 158.689 110.758 152.314C110.578 150.7 110.19 149.111 109.778 147.428C109.638 146.856 109.494 146.264 109.358 145.674C109.284 145.351 109.486 145.028 109.809 144.954C110.132 144.88 110.453 145.083 110.527 145.406C110.659 145.987 110.803 146.574 110.942 147.142C111.344 148.788 111.76 150.49 111.948 152.18C112.678 158.732 111.403 165.61 110.38 171.135C109.906 173.695 109.497 175.906 109.334 177.746C108.697 184.984 108.156 204.797 108.152 204.996C108.143 205.322 107.876 205.581 107.552 205.581L107.551 205.58Z" fill="#2E2E2E"/>
<path d="M191.133 122.313C190.848 122.313 190.595 122.108 190.544 121.817C190.485 121.49 190.702 121.179 191.028 121.119C192.429 120.868 193.241 120.032 193.199 118.885C193.16 117.797 192.299 116.609 190.73 116.443C190.4 116.409 190.161 116.113 190.196 115.783C190.231 115.453 190.527 115.214 190.855 115.248C193.105 115.486 194.34 117.236 194.398 118.842C194.446 120.169 193.648 121.871 191.24 122.303C191.205 122.31 191.168 122.313 191.133 122.313Z" fill="#2E2E2E"/>
<path d="M172.748 131.776C172.484 131.776 172.243 131.601 172.17 131.335C172.082 131.014 172.27 130.683 172.589 130.596C174.991 129.937 175.841 127.857 175.115 124.419C175.047 124.093 175.254 123.775 175.578 123.706C175.901 123.637 176.22 123.845 176.289 124.17C177.145 128.227 175.944 130.921 172.907 131.756C172.853 131.77 172.8 131.777 172.748 131.777V131.776Z" fill="#2E2E2E"/>
<path d="M178.887 138.985C178.496 138.985 178.105 138.908 177.731 138.754L177.684 138.735C176.923 138.422 176.333 137.828 176.022 137.064C175.712 136.299 175.72 135.462 176.047 134.705L182.403 119.978C182.534 119.673 182.887 119.533 183.191 119.665C183.495 119.797 183.634 120.151 183.502 120.455L177.147 135.182C176.949 135.641 176.944 136.148 177.132 136.611C177.32 137.074 177.678 137.433 178.139 137.623L178.186 137.642C178.648 137.833 179.154 137.828 179.612 137.631C180.071 137.434 180.423 137.069 180.603 136.603L182.84 130.836C182.961 130.527 183.308 130.374 183.617 130.494C183.926 130.615 184.079 130.963 183.958 131.272L181.721 137.039C181.423 137.809 180.842 138.411 180.085 138.736C179.7 138.902 179.294 138.985 178.886 138.985H178.887Z" fill="#2E2E2E"/>
<path d="M42.4773 205.58C42.4497 205.58 42.4211 205.578 42.3924 205.575C42.0643 205.528 41.8363 205.224 41.883 204.895L42.9123 197.613C42.9591 197.284 43.2624 197.055 43.5906 197.102C43.9187 197.149 44.1467 197.453 44.1 197.782L43.0707 205.064C43.0287 205.364 42.7712 205.581 42.4773 205.581V205.58Z" fill="#2E2E2E"/>
<path d="M62.2344 111.646C66.5014 119.401 74.3666 121.381 83.0933 122.785C84.3792 120.142 85.2177 116.582 85.3627 115.28C85.376 115.157 85.5382 115.122 85.6021 115.228L89.8453 122.208C93.724 121.417 97.784 119.063 99.586 116.904L92.502 113.157C92.502 113.157 89.1164 115.359 83.9146 114.825C78.7118 114.29 70.7655 110.485 70.7655 110.485L68.8719 109.456L62.2344 111.646Z" fill="white"/>
<path d="M83.438 123.448L82.9992 123.377C78.8505 122.71 74.4948 121.856 70.7439 120.143C66.6839 118.289 63.7286 115.604 61.71 111.936C61.5498 111.645 61.6557 111.28 61.9457 111.119C62.2357 110.959 62.6001 111.065 62.7603 111.355C66.8947 118.869 74.5472 120.778 82.7445 122.118C83.9025 119.569 84.6399 116.36 84.7678 115.213C84.8021 114.902 85.0301 114.649 85.3335 114.581C85.6378 114.513 85.9526 114.647 86.1147 114.915L90.1366 121.53C93.8169 120.694 97.7051 118.682 99.3125 116.758C99.5252 116.504 99.903 116.47 100.157 116.682C100.41 116.896 100.444 117.274 100.232 117.528C98.3824 119.744 94.0649 121.959 89.9658 122.795L89.5527 122.879L85.7446 116.614C85.3935 118.316 84.6638 120.929 83.6335 123.046L83.4389 123.446L83.438 123.448Z" fill="#2E2E2E"/>
<path d="M134.392 151.695C134.231 151.695 134.069 151.63 133.951 151.502C130.155 147.383 126.757 143.309 123.759 139.715C119.719 134.872 116.231 130.689 112.962 127.773C103.149 119.02 92.4527 113.313 92.3459 113.257L92.0788 113.116L92.033 112.816C91.7029 110.649 91.9968 106.978 93.1901 104.445C93.3313 104.145 93.689 104.017 93.9886 104.158C94.2881 104.3 94.4159 104.658 94.2748 104.959C93.235 107.166 92.9431 110.327 93.1796 112.343C94.9263 113.3 104.718 118.812 113.758 126.877C117.093 129.852 120.608 134.066 124.679 138.946C127.668 142.529 131.056 146.59 134.832 150.688C135.057 150.932 135.041 151.312 134.798 151.537C134.683 151.644 134.537 151.696 134.392 151.696V151.695Z" fill="#2E2E2E"/>
<path d="M85.7672 115.499C82.9684 115.499 79.7364 114.974 76.7544 114.025C73.22 112.899 70.3868 111.298 68.7785 109.514C68.5562 109.267 68.5753 108.888 68.8214 108.665C69.0675 108.442 69.4462 108.461 69.6685 108.708C72.9329 112.329 81.0586 114.512 86.5981 114.279C89.3245 114.165 91.2963 113.483 92.1501 112.36C92.3504 112.096 92.7272 112.046 92.9905 112.246C93.2538 112.447 93.3043 112.825 93.104 113.089C92.0146 114.522 89.7824 115.349 86.6487 115.48C86.3606 115.492 86.0668 115.498 85.7682 115.498L85.7672 115.499Z" fill="#2E2E2E"/>
<path d="M72.4778 85.0378C72.2622 85.0378 72.0542 84.9212 71.9464 84.7166C68.9215 78.9641 67.2197 69.8646 71.5133 61.5777C73.2524 58.222 75.5781 55.569 78.4275 53.6904C80.8992 52.0613 83.7801 51.002 86.9901 50.5412C93.8442 49.5593 100.337 51.568 102.809 52.4772C106.944 53.9973 111.832 57.5107 113.429 61.9333C114.399 64.6198 114.764 69.0252 112.926 70.3082C110.895 71.725 106.348 71.3168 102.892 70.725C98.9888 70.0568 94.4318 68.8072 91.0005 67.4649C90.4453 67.2479 89.6917 67.334 89.0334 67.6896C88.4496 68.0051 88.0547 68.4688 87.9498 68.9611C87.3488 71.7929 86.3242 75.0511 85.2081 77.6764C84.6577 78.9708 84.1101 80.0464 83.6236 80.7854C83.2096 81.4154 82.5705 82.2424 81.8102 82.1563C80.8353 82.0474 80.4699 81.3561 80.1761 80.8007C79.9643 80.4001 79.764 80.0215 79.3452 79.7337C79.0714 79.5464 79.0018 79.1726 79.1888 78.8982C79.3757 78.6247 79.7487 78.554 80.0225 78.7414C80.6864 79.1965 80.9908 79.7739 81.2359 80.2376C81.5116 80.7586 81.6213 80.9125 81.9018 80.9556C82.1488 80.838 82.9835 79.9221 84.2456 76.8685C85.2759 74.3761 86.2222 71.3264 86.7774 68.7107C86.9548 67.8722 87.5701 67.1141 88.4649 66.6313C89.4389 66.1045 90.5502 65.9974 91.4374 66.3445C97.9862 68.9066 109.347 71.3407 112.241 69.3206C113.282 68.595 113.311 65.137 112.301 62.3415C110.835 58.2822 106.27 55.0288 102.396 53.6043C98.8333 52.2946 80.6521 46.5488 72.577 62.1303C68.496 70.0061 70.1225 78.6706 73.0063 84.1545C73.1608 84.448 73.0482 84.8113 72.7554 84.9661C72.6667 85.013 72.5703 85.0359 72.4759 85.0359L72.4778 85.0378Z" fill="#2E2E2E"/>
<path d="M71.0022 64.1406C70.9974 64.1406 70.9927 64.1406 70.9879 64.1406C67.92 64.068 65.6697 62.4379 64.813 59.6673C64.2149 57.7342 64.3733 55.4378 65.2595 53.2016C66.2077 50.8077 67.8923 48.6863 70.1332 47.0677C74.0052 44.2694 78.2665 43.6432 81.5308 45.3947C83.9033 46.6671 85.318 49.0544 85.2236 51.6261C85.2112 51.9578 84.9336 52.2179 84.6025 52.2045C84.2715 52.1921 84.013 51.9139 84.0254 51.5821C84.1046 49.4416 82.9599 47.5257 80.9652 46.4549C78.1148 44.9252 74.3276 45.5189 70.8353 48.0429C66.3489 51.2848 64.9866 56.1663 65.9597 59.3117C66.6646 61.5909 68.4609 62.8786 71.0175 62.9398C71.3485 62.9475 71.6108 63.2228 71.6032 63.5546C71.5955 63.8815 71.3284 64.1416 71.0041 64.1416L71.0022 64.1406Z" fill="#2E2E2E"/>
<path d="M52.0001 206.424L95.2686 211.365L101.32 158.135L58.0516 153.194L52.0001 206.424Z" fill="white"/>
<path d="M191.209 128.58C191.209 128.58 188.586 128.407 187.711 128.351C185.225 128.19 182.645 127.693 182.351 125.226C182.285 124.673 182.484 124.119 182.925 123.626C184.149 122.26 187.136 121.434 190.725 121.476C191.056 121.48 191.321 121.751 191.318 122.083C191.314 122.413 191.046 122.678 190.719 122.678C190.717 122.678 190.714 122.678 190.713 122.678C187.07 122.641 184.626 123.528 183.819 124.429C183.612 124.66 183.519 124.881 183.544 125.084C183.648 125.958 184.07 126.91 187.79 127.151C188.664 127.207 191.288 127.38 191.288 127.38L191.209 128.58Z" fill="#2E2E2E"/>
<path d="M95.78 212L51.4771 206.94L57.6605 152.567L101.963 157.627L95.78 212ZM52.7477 205.927L94.7698 210.728L100.693 158.641L58.6707 153.841L52.7477 205.927Z" fill="#2E2E2E"/>
<path d="M50.9524 159.971L46.6063 175.189L78.5147 180.39L76.6945 200.474C76.6945 200.474 28.6483 198.403 20.2765 191.134C13.7745 185.487 17.0045 171.98 20.6791 160.632C24.409 149.112 31.4367 132.004 43.1539 121.736C46.8896 118.463 50.8151 116.12 57.6376 113.31L50.9524 159.971Z" fill="#9F54F8"/>
<path d="M93.9815 182.605C93.9815 182.605 97.9089 181.279 99.1719 183.279C100.435 185.279 101.032 185.164 100.119 186.491C99.2063 187.818 98.0262 187.902 98.0262 187.902C98.0262 187.902 100.512 189.127 100.279 190.839C100.047 192.551 99.523 193.778 98.7818 193.975C98.0406 194.172 97.5808 194.277 97.5808 194.277C97.5808 194.277 99.3389 194.728 99.523 196.301C99.7071 197.874 99.6174 199.141 99.0269 199.436C98.4364 199.73 96.7441 200.211 96.7441 200.211C96.7441 200.211 98.3515 201.574 97.7076 202.629C97.0637 203.684 96.5152 205.093 94.4404 204.988C92.3656 204.884 89.8433 204.135 89.3473 203.911C88.8522 203.686 87.0006 190.635 87.3125 189.964C87.6245 189.293 93.9815 182.605 93.9815 182.605Z" fill="white"/>
<path d="M78.2644 183.748C78.0107 183.748 77.7788 183.579 77.7102 183.322C77.6281 183.015 77.8094 182.7 78.1156 182.617C78.914 182.403 79.6572 181.988 80.2667 181.417C87.8114 174.342 92.6374 170.522 94.9736 171.926C96.0869 172.595 96.7031 173.419 96.8052 174.376C96.9397 175.642 96.1756 177.036 94.4681 178.637C92.0145 180.939 91.2304 182.498 91.2227 182.513C91.0825 182.798 90.7381 182.915 90.4539 182.774C90.1696 182.634 90.0532 182.289 90.1934 182.004C90.2287 181.933 91.0797 180.241 93.6839 177.798C95.09 176.479 95.7568 175.369 95.6643 174.499C95.6023 173.912 95.1835 173.394 94.3841 172.913C93.9453 172.65 92.7004 172.584 89.2862 175.105C86.7764 176.958 83.8459 179.637 81.0518 182.257C80.3058 182.957 79.3939 183.465 78.4142 183.728C78.3646 183.742 78.314 183.748 78.2654 183.748H78.2644Z" fill="#2E2E2E"/>
<path d="M94.9289 205.58C93.3959 205.58 91.5434 205.095 89.7195 204.563C86.3883 203.593 78.2464 200.227 77.6025 199.961L76.6867 199.693C76.3824 199.604 76.2078 199.285 76.2965 198.98C76.3853 198.675 76.7048 198.5 77.0082 198.589L78.0127 198.886C78.0995 198.922 86.704 202.488 90.039 203.459C91.9622 204.019 95.1808 204.956 96.5354 204.069C96.915 203.82 97.1354 203.424 97.2098 202.857C97.3672 201.656 96.9923 200.958 94.5111 200.479C94.2001 200.419 93.996 200.118 94.0561 199.805C94.1162 199.493 94.4176 199.29 94.7286 199.349C96.8044 199.749 98.6808 200.47 98.3488 203.006C98.2305 203.913 97.8318 204.595 97.165 205.032C96.5649 205.424 95.7989 205.58 94.9299 205.58H94.9289Z" fill="#2E2E2E"/>
<path d="M95.837 188.706C95.5241 188.706 95.2684 188.455 95.2636 188.14C95.2589 187.823 95.5117 187.561 95.8284 187.556C97.6838 187.528 98.9449 187.382 99.5001 186.746C99.8225 186.376 99.9313 185.79 99.8311 184.955C99.6041 183.05 97.2888 182.961 93.2155 182.972C92.356 182.974 91.4669 182.976 90.5407 182.952C90.224 182.943 89.9731 182.679 89.9817 182.362C89.9902 182.045 90.2516 181.797 90.5702 181.802C91.4803 181.826 92.3608 181.823 93.2127 181.822C97.183 181.812 100.61 181.806 100.97 184.818C101.11 185.996 100.912 186.875 100.363 187.504C99.4371 188.566 97.6981 188.679 95.8446 188.707C95.8417 188.707 95.8389 188.707 95.836 188.707L95.837 188.706Z" fill="#2E2E2E"/>
<path d="M97.1841 194.957C96.8264 194.957 96.4324 194.921 96.0003 194.84C95.6883 194.782 95.4832 194.481 95.5424 194.169C95.6006 193.856 95.9011 193.651 96.2121 193.71C97.3711 193.928 98.3279 193.774 98.9775 193.266C99.5012 192.855 99.7111 192.31 99.7331 191.936C99.776 191.194 99.7483 190.256 99.1435 189.586C98.6456 189.034 97.808 188.731 96.6518 188.683C96.3351 188.67 96.089 188.402 96.1024 188.085C96.1157 187.767 96.3828 187.522 96.6995 187.534C98.1743 187.595 99.2828 188.026 99.9944 188.814C101 189.928 100.912 191.436 100.879 192.004C100.831 192.813 100.385 193.624 99.6844 194.173C99.1912 194.559 98.3899 194.958 97.1841 194.958V194.957Z" fill="#2E2E2E"/>
<path d="M97.2069 200.878C96.7414 200.878 96.2024 200.81 95.5795 200.642C95.2732 200.559 95.092 200.244 95.174 199.937C95.2561 199.63 95.5709 199.447 95.8771 199.531C97.0647 199.85 97.9948 199.782 98.5662 199.335C99.1281 198.894 99.235 198.182 99.2254 197.662C99.1987 196.195 99.0365 195.279 96.1795 194.944C95.8647 194.906 95.6396 194.621 95.6758 194.306C95.713 193.99 95.9973 193.763 96.3121 193.801C99.6556 194.193 100.333 195.506 100.372 197.64C100.392 198.745 100.002 199.668 99.2722 200.24C98.8601 200.563 98.2028 200.877 97.2059 200.877L97.2069 200.878Z" fill="#2E2E2E"/>
<path d="M77.2174 201.073L76.6708 201.049C76.5506 201.044 64.4909 200.514 51.564 199.102C34.1164 197.196 23.4638 194.661 19.9017 191.569C13.0925 185.655 16.4494 171.835 20.1345 160.454C24.1172 148.155 31.2784 131.379 42.7773 121.303C46.6398 117.918 50.7455 115.527 57.4203 112.777C60.1352 111.658 66.0992 109.496 68.9401 108.598C70.2078 107.47 71.8286 104.145 73.1946 99.8599C74.5836 95.5042 75.4459 91.007 75.4459 88.1227C75.4459 87.8053 75.7025 87.5471 76.0202 87.5471C76.3379 87.5471 76.5945 87.8043 76.5945 88.1227C76.5945 94.3015 72.8369 106.874 69.5887 109.556L69.5019 109.628L69.3951 109.661C66.6248 110.529 60.5864 112.717 57.8572 113.842C51.2235 116.575 47.3419 118.832 43.5337 122.17C32.2314 132.074 25.1646 148.649 21.2268 160.81C19.7481 165.377 17.7248 172.135 17.2355 178.068C16.7346 184.135 17.8527 188.266 20.6544 190.699C23.9894 193.594 34.7203 196.104 51.689 197.958C63.0199 199.196 73.6792 199.753 76.1748 199.874L77.8966 180.871L45.8785 175.652L50.4021 159.811C50.4889 159.505 50.8075 159.329 51.1118 159.416C51.4161 159.503 51.5926 159.822 51.5058 160.127L47.3371 174.723L79.1367 179.907L77.2184 201.072L77.2174 201.073Z" fill="#2E2E2E"/>
<path d="M157.134 48.2285H146.938C146.491 48.2285 146.177 47.8635 146.236 47.4124L148.813 27.6598C148.872 27.2087 149.282 26.8438 149.729 26.8438H159.925C160.372 26.8438 160.686 27.2087 160.628 27.6598L160.552 28.2352C160.494 28.6862 160.083 29.0512 159.636 29.0512H151.904C151.457 29.0512 151.047 29.4162 150.988 29.8673L150.303 35.1238C150.244 35.5749 150.559 35.9399 151.006 35.9399H158.172C158.619 35.9399 158.933 36.3049 158.875 36.7559L158.802 37.317C158.744 37.768 158.333 38.133 157.886 38.133H150.72C150.273 38.133 149.862 38.498 149.804 38.9491L148.99 45.1858C148.932 45.6369 149.246 46.0019 149.693 46.0019H157.425C157.872 46.0019 158.186 46.3669 158.128 46.8179L158.05 47.4076C157.992 47.8587 157.581 48.2237 157.134 48.2237V48.2285Z" fill="#2E2E2E"/>
<path d="M170.909 34.8606L170.958 34.4909C171.017 34.0398 171.427 33.6748 171.874 33.6748H183.738C184.185 33.6748 184.499 34.0398 184.441 34.4909L184.392 34.8606C184.334 35.3117 183.923 35.6767 183.476 35.6767H171.612C171.165 35.6767 170.851 35.3117 170.909 34.8606ZM170.129 40.844L170.178 40.4742C170.236 40.0231 170.647 39.6581 171.094 39.6581H182.958C183.405 39.6581 183.719 40.0231 183.661 40.4742L183.612 40.844C183.553 41.295 183.143 41.66 182.696 41.66H170.832C170.385 41.66 170.071 41.295 170.129 40.844Z" fill="#2E2E2E"/>
<path d="M215.739 48.2284C215.292 48.2284 214.977 47.8634 215.036 47.4124L216.29 37.7982C216.457 36.5216 216.31 35.5637 215.854 34.9245C215.396 34.2854 214.597 33.9666 213.456 33.9666C211.959 33.9666 210.795 34.4001 209.967 35.2688C209.138 36.1374 208.607 37.4731 208.372 39.2773L207.31 47.4124C207.252 47.8634 206.841 48.2284 206.394 48.2284H205.606C205.159 48.2284 204.845 47.8634 204.903 47.4124L206.157 37.7982C206.325 36.5216 206.178 35.5637 205.721 34.9245C205.263 34.2854 204.459 33.9666 203.309 33.9666C201.801 33.9666 200.638 34.4225 199.819 35.3341C198.999 36.2458 198.454 37.7409 198.182 39.8177L197.192 47.4124C197.134 47.8634 196.723 48.2284 196.276 48.2284H195.488C195.041 48.2284 194.726 47.8634 194.785 47.4124L196.664 33.0135C196.723 32.5624 197.134 32.1974 197.581 32.1974H198.051C198.443 32.1974 198.741 32.4811 198.76 32.87L198.833 34.3922H198.948C199.504 33.6128 200.225 33.0023 201.108 32.564C201.991 32.1241 202.945 31.9058 203.97 31.9058C206.453 31.9058 207.958 32.8127 208.485 34.6265H208.601C209.184 33.7881 209.956 33.1251 210.919 32.6373C211.881 32.1496 212.938 31.9058 214.088 31.9058C215.885 31.9058 217.171 32.3712 217.943 33.302C218.716 34.2328 218.969 35.723 218.7 37.7711L217.441 47.414C217.383 47.865 216.972 48.23 216.525 48.23H215.739V48.2284Z" fill="#2E2E2E"/>
<path d="M228.605 48.5199C226.305 48.5199 224.619 47.8058 223.543 46.3761C222.469 44.948 222.101 42.927 222.442 40.3131C222.793 37.6322 223.702 35.5586 225.175 34.0971C226.647 32.6339 228.566 31.9023 230.933 31.9023C231.696 31.9023 232.45 31.9852 233.191 32.151C233.568 32.2355 233.901 32.3263 234.192 32.4267C234.603 32.567 234.761 33.0483 234.55 33.4771L234.276 34.0381C234.073 34.4525 233.6 34.6677 233.2 34.5354C232.894 34.435 232.571 34.3441 232.233 34.266C231.624 34.1258 231.077 34.054 230.594 34.054C227.365 34.054 225.481 36.1324 224.938 40.286C224.68 42.256 224.878 43.767 225.528 44.8205C226.179 45.8741 227.277 46.4 228.823 46.4C229.809 46.4 230.834 46.2406 231.898 45.9219C232.445 45.7577 232.93 46.1402 232.857 46.6949L232.796 47.1619C232.751 47.4966 232.511 47.7978 232.189 47.9238C231.166 48.3222 229.97 48.5214 228.604 48.5214L228.605 48.5199Z" fill="#2E2E2E"/>
<path d="M243.651 39.6569H236.514C236.067 39.6569 235.752 39.2919 235.811 38.8408L235.858 38.4806C235.887 38.2606 236.002 38.0487 236.179 37.8956L239.763 34.7717C240.732 33.9333 241.445 33.2767 241.903 32.8033C242.361 32.3299 242.694 31.9091 242.901 31.5378C243.108 31.168 243.247 30.7185 243.316 30.1926C243.403 29.5295 243.274 29.029 242.933 28.6927C242.59 28.3564 242.114 28.1875 241.505 28.1875C241.003 28.1875 240.502 28.2799 240.004 28.4664C239.671 28.5907 239.286 28.782 238.848 29.0418C238.456 29.2745 237.992 29.1964 237.78 28.8505L237.772 28.8378C237.547 28.4696 237.695 27.9357 238.106 27.6775C239.279 26.9363 240.473 26.5649 241.69 26.5649C242.966 26.5649 243.917 26.8821 244.544 27.5165C245.171 28.1508 245.414 29.0131 245.272 30.1065C245.171 30.8875 244.857 31.6446 244.331 32.3809C243.805 33.1173 242.743 34.1581 241.146 35.5033L239.966 36.5074C239.369 37.0158 239.608 37.9164 240.339 37.9164H243.879C244.326 37.9164 244.64 38.2814 244.582 38.7324L244.567 38.8392C244.509 39.2903 244.098 39.6553 243.651 39.6553V39.6569Z" fill="#2E2E2E"/>
<path d="M195.77 75.0848C175.872 75.0848 157.15 71.2484 143.051 64.2801C128.727 57.2018 120.839 47.7056 120.839 37.5416C120.839 27.3776 128.727 17.883 143.051 10.8047C157.15 3.8364 175.872 0 195.77 0C215.669 0 234.391 3.8364 248.489 10.8047C262.814 17.883 270.702 27.3792 270.702 37.5432C270.702 47.7072 262.814 57.2018 248.489 64.2801C234.391 71.2468 215.669 75.0848 195.77 75.0848ZM195.77 2.00347C176.169 2.00347 157.757 5.76816 143.925 12.6042C130.317 19.3287 122.824 28.1857 122.824 37.5416C122.824 46.8975 130.317 55.7546 143.925 62.479C157.757 69.3151 176.169 73.0798 195.77 73.0798C215.372 73.0798 233.784 69.3151 247.616 62.479C261.222 55.7546 268.717 46.8975 268.717 37.5416C268.717 28.1857 261.223 19.3271 247.616 12.6042C233.784 5.76816 215.372 2.00347 195.77 2.00347Z" fill="#2E2E2E"/>
</svg>
