<svg width="324" height="195" viewBox="0 0 324 195" fill="none" xmlns="http://www.w3.org/2000/svg">
<path d="M130.798 167.376L128.424 193.556L203.674 193.192L201.9 168.017L130.798 167.376Z" fill="white"/>
<path d="M193.17 63.7875C202.739 59.6189 200.844 51.391 197.14 34.5047C193.245 16.7507 187.077 0.756514 173.659 5.90985C173.659 5.90985 167.665 -1.31465 158.922 0.742675C142.33 4.64695 133.938 29.95 131.059 38.4941C128.225 46.8999 125.95 60.5233 139.109 64.8878C148.512 68.0066 181.392 68.9173 193.171 63.7861L193.17 63.7875Z" fill="#2E2E2E"/>
<path d="M165.224 81.9911C165.176 81.9288 151.794 71.7447 151.794 71.7447C151.794 71.7447 141.332 74.1424 136.847 75.8718C132.363 77.6011 126.484 81.6548 124.251 83.7876C122.018 85.9203 111.134 97.4435 111.134 97.4435L101.527 107.441L85.6135 83.3841L64.8999 94.6125C64.8999 94.6125 77.3963 119.518 81.0391 124.774C84.6812 130.03 89.8672 137.439 94.0366 139.953C98.2067 142.467 99.6912 142.849 102.952 142.016C106.214 141.183 112.622 138.296 115.425 136.559C118.227 134.822 129.818 125.839 129.818 125.839L128.207 167.383L201.251 167.889L204.066 193.664H221.964C221.945 193.465 215.997 112.55 213.527 100.834C212.335 95.1841 208.168 87.395 202.938 83.6623C197.709 79.9296 188.157 75.2358 187.602 75.0178C187.047 74.8005 178 71.5779 178 71.5779L165.222 81.9911H165.224Z" fill="#9F54F8"/>
<path d="M104.134 106.716C106.405 104.86 112.557 99.0046 112.557 99.0046C112.557 99.0046 123.441 87.4814 125.674 85.3486C127.907 83.2159 133.786 79.1622 138.271 77.4328C142.125 75.9464 151.278 73.8434 153.774 73.2815C152.56 72.357 151.755 71.7439 151.755 71.7439C151.755 71.7439 141.293 74.1417 136.808 75.871C132.323 77.6003 126.445 81.6541 124.211 83.7868C121.978 85.9195 111.094 97.4428 111.094 97.4428L101.414 107.942C101.414 107.942 102.427 108.11 104.134 106.716H104.134Z" fill="white"/>
<path d="M131.566 127.4C131.566 127.4 132.17 104.991 131.204 105.734L128.493 167.383H130.375L131.567 127.4H131.566Z" fill="white"/>
<path d="M132.509 40.4592C135.389 31.9151 143.781 6.61203 160.372 2.70776C169.115 0.650436 173.889 7.5663 173.889 7.5663C180.251 5.12284 186.203 7.74414 189.837 12.7432C186.051 6.41965 180.961 3.16517 173.815 5.91034C173.815 5.91034 167.821 -1.31416 159.078 0.743163C142.487 4.64744 134.095 29.9505 131.215 38.4946C129.08 44.8285 127.263 54.1242 132.127 60.1896C128.935 54.21 130.594 46.1426 132.509 40.4592Z" fill="white"/>
<path d="M164.87 67.81C153.994 67.81 143.629 66.7858 138.99 65.2475C134.82 63.8649 131.851 61.4477 130.166 58.0638C127.157 52.0254 128.796 44.0238 130.7 38.3743L130.776 38.1494C132.287 33.6666 135.098 25.3225 139.639 17.4856C145.246 7.80999 151.705 2.05323 158.835 0.37513C163.475 -0.716848 167.339 0.781335 169.763 2.23039C171.899 3.50713 173.296 4.93957 173.771 5.46411C177.375 4.141 180.675 4.26418 183.583 5.83295C186.904 7.62454 189.718 11.2174 192.185 16.8157C194.143 21.259 195.884 27.0186 197.509 34.423L197.602 34.8472C199.454 43.2841 200.791 49.3799 200.503 54.0551C200.352 56.5117 199.739 58.4832 198.631 60.0831C197.471 61.757 195.734 63.0815 193.321 64.1327C188.022 66.4412 177.79 67.7809 165.249 67.8086C165.123 67.8086 164.996 67.8086 164.87 67.8086V67.81ZM162.082 0.748118C161.062 0.748118 160.036 0.869218 159.008 1.11142C152.088 2.7397 145.791 8.37675 140.292 17.8655C135.789 25.636 132.994 33.9337 131.492 38.3916L131.416 38.6165C129.558 44.1304 127.949 51.9216 130.842 57.7275C132.435 60.9246 135.256 63.2137 139.227 64.5313C148.142 67.4882 180.991 68.6819 193.02 63.4421C197.448 61.5128 199.46 58.6929 199.749 54.0108C200.031 49.4408 198.703 43.3886 196.864 35.0112L196.771 34.587C194.551 24.4692 190.732 10.5503 183.224 6.50003C180.452 5.00462 177.279 4.92504 173.794 6.26406L173.541 6.36094L173.368 6.15265C173.354 6.13535 171.866 4.36452 169.353 2.86772C166.985 1.45742 164.55 0.749503 162.081 0.749503L162.082 0.748118Z" fill="#2E2E2E"/>
<path d="M83.7436 84.3115C83.7436 84.3115 82.8411 80.255 83.1286 78.6918C83.4161 77.1286 84.9703 68.2696 85.1894 66.6704C85.4085 65.0711 85.7596 60.5281 84.3649 59.8922C82.9696 59.2569 80.7857 61.6644 79.9067 63.9044C79.0276 66.1444 77.832 68.6675 77.5493 69.1491C77.266 69.6307 77.3745 69.9235 76.4643 68.799C75.5541 67.6745 73.5202 60.6541 72.704 57.9525C71.8201 55.0254 69.3681 50.645 68.5409 50.1253C67.7136 49.6056 67.3128 49.153 66.5837 49.7129C64.471 51.3356 65.6417 54.0918 65.6417 54.0918C65.6417 54.0918 63.2166 49.69 61.9478 49.2105C60.6789 48.7309 60.5849 48.8063 59.69 49.3641C58.795 49.9218 58.5884 52.7092 58.909 53.8358C59.2297 54.9624 56.7963 53.4732 56.0893 53.3666C54.7991 53.1729 53.5226 53.8102 54.7873 58.3774C54.4397 58.5684 57.7749 64.3369 56.9615 64.438C56.193 64.5335 51.2821 58.949 50.6829 59.5247C50.0187 60.1628 49.6324 61.2617 49.9095 63.1924C50.0077 63.874 54.2745 70.8376 55.6491 73.4921C57.0237 76.1466 61.7888 82.8244 62.0107 83.1614C62.2318 83.4984 68.6687 92.0447 68.6687 92.0447L83.7436 84.3115Z" fill="white"/>
<path d="M68.3172 92.6064C68.2059 92.6064 68.0953 92.5573 68.0207 92.4632C67.9612 92.3885 62.0475 84.8844 57.6915 77.8184C56.3563 75.6531 55.3086 74.0144 54.3846 72.5695C52.4032 69.4708 51.207 67.6003 49.6838 64.4164C48.9754 62.9355 48.8109 61.6172 49.2207 60.7052C49.4896 60.1066 50.0031 59.6838 50.7059 59.4831C51.8517 59.1551 53.1565 59.6582 55.7993 63.1825C56.7219 64.4122 59.6743 68.4321 59.704 68.4722C59.8277 68.6404 59.7918 68.877 59.6238 69.0009C59.4559 69.1248 59.2195 69.0888 59.0958 68.9206C59.0661 68.8805 56.1158 64.8634 55.196 63.6372C52.3231 59.807 51.3714 60.0796 50.9139 60.2111C50.4177 60.3529 50.0894 60.6166 49.9098 61.0166C49.5974 61.712 49.7632 62.8324 50.3652 64.0911C51.8683 67.2335 53.0549 69.0888 55.0204 72.1633C55.9458 73.611 56.9956 75.2517 58.3336 77.4225C62.6667 84.4498 68.5535 91.9207 68.613 91.9954C68.7422 92.1594 68.7145 92.3968 68.5508 92.5262C68.4816 92.5808 68.3987 92.6078 68.3172 92.6078V92.6064Z" fill="#2E2E2E"/>
<path d="M64.4742 66.5217C64.3401 66.5217 64.2102 66.4497 64.1418 66.3237C62.2565 62.834 58.877 55.6579 58.2716 53.4055C58.0269 52.4962 57.7277 50.8021 58.4651 49.6707C58.8258 49.1178 59.376 48.7815 60.0995 48.6715C62.8653 48.2507 64.2682 51.3308 64.8674 52.6456C65.5869 54.2241 66.6746 56.8385 67.6346 59.1449C68.4369 61.0721 69.1944 62.8921 69.5994 63.7793C69.6865 63.9689 69.6028 64.1931 69.4135 64.2803C69.2241 64.3675 69.0002 64.2837 68.9131 64.0941C68.5026 63.1952 67.7424 61.369 66.938 59.4363C65.9801 57.1353 64.8951 54.5272 64.1812 52.9598C63.3083 51.043 62.1542 49.1234 60.2136 49.4188C59.7042 49.4963 59.3393 49.7143 59.0974 50.0845C58.6759 50.7309 58.6406 51.8699 59.0007 53.2096C59.5937 55.415 62.9372 62.506 64.8059 65.9646C64.9047 66.148 64.837 66.3777 64.6532 66.4767C64.5958 66.5078 64.5343 66.5223 64.4742 66.5223V66.5217Z" fill="#2E2E2E"/>
<path d="M83.6691 84.4985C83.5039 84.4985 83.3519 84.3892 83.3056 84.2217C82.0899 79.84 83.4286 72.4556 84.4058 67.0635C84.9068 64.2997 85.3395 61.9123 85.2144 61.0037C85.1639 60.6369 84.8205 60.0619 84.3056 59.9366C83.6539 59.7775 82.8204 60.3608 81.96 61.5794C80.8584 63.1392 80.0381 64.9163 79.3787 66.3439C78.5529 68.1313 78.0546 69.2101 77.3504 69.3548C76.463 69.5368 75.9813 68.5693 75.8002 68.2053C75.4416 67.4857 75.0953 66.4318 74.6572 65.0976C74.2632 63.8983 73.8168 62.5399 73.2273 61.0016C72.9101 60.1733 72.6005 59.3422 72.3012 58.5381C71.4214 56.1763 70.5914 53.9453 69.7587 52.3135C68.8969 50.6244 68.1373 49.778 67.4366 49.7275C66.8332 49.6832 66.3156 49.9137 65.9777 50.3746C65.5395 50.9724 65.0087 52.4948 66.382 55.9708C66.4587 56.1645 66.3633 56.3846 66.1698 56.4614C65.9763 56.5382 65.7565 56.4434 65.6798 56.249C64.2485 52.6256 64.7212 50.8119 65.3695 49.9275C65.8595 49.259 66.6328 48.9117 67.4919 48.9739C69.6032 49.1276 71.1063 53.164 73.0089 58.2744C73.3075 59.0765 73.6164 59.9062 73.9322 60.731C74.5279 62.2867 74.9778 63.6548 75.3745 64.8616C76.0559 66.9362 76.6441 68.7278 77.1997 68.6143C77.2301 68.6081 77.4015 68.5458 77.7567 67.9334C78.0346 67.4545 78.34 66.793 78.6939 66.0269C79.3663 64.5717 80.2025 62.76 81.3442 61.1435C82.6919 59.2349 83.7962 59.0343 84.4853 59.2031C85.4231 59.4322 85.8896 60.3664 85.9628 60.902C86.1038 61.9303 85.6823 64.2554 85.1487 67.1992C84.1846 72.5193 82.864 79.8047 84.0333 84.0197C84.0893 84.221 83.9718 84.4293 83.7707 84.4847C83.7368 84.4944 83.7029 84.4985 83.6698 84.4985H83.6691Z" fill="#2E2E2E"/>
<path d="M59.4005 69.0736C59.2567 69.0736 59.1199 68.9912 59.0563 68.8514L54.5407 58.8755C53.6491 57.1698 53.4052 55.61 53.8537 54.4841C54.1467 53.7492 54.7107 53.2343 55.5317 52.9541C57.9478 52.1292 59.869 55.6827 61.585 59.6451C61.668 59.8367 61.5802 60.0589 61.3888 60.1419C61.1973 60.2249 60.9755 60.1371 60.8925 59.9454C59.4834 56.6909 57.6271 53.0364 55.7757 53.6689C55.173 53.8745 54.7625 54.2426 54.5552 54.7637C54.1937 55.6702 54.4342 57.0445 55.2145 58.5337L55.2242 58.5531L59.7439 68.5387C59.8303 68.729 59.746 68.9525 59.556 69.039C59.5055 69.0618 59.4523 69.0729 59.4005 69.0729V69.0736Z" fill="#2E2E2E"/>
<path d="M169.84 19.8896C169.84 19.8896 163.482 12.4201 157.529 15.6081C150.365 19.4453 149.928 28.6406 149.928 28.6406C149.928 28.6406 148.358 32.9538 146.353 37.2934C146.086 37.8719 142.136 41.8225 142.753 42.0772C145.672 43.2813 147.598 41.7533 147.606 41.8322C147.951 45.2189 148.832 49.4263 150.419 52.0849C152.051 54.8197 153.553 55.3961 153.553 55.3961L155.033 57.3857C155.033 57.3857 155.573 61.1266 155.271 62.7957C154.97 64.4648 154.356 68.4743 153.916 69.3587C153.476 70.243 152.557 71.8872 152.557 71.8872C152.557 71.8872 162.209 79.8086 164.99 81.9911C167.117 81.432 176.221 72.9467 176.221 72.9467L178.178 71.4409C178.178 71.4409 176.752 68.875 176.565 67.5366C176.377 66.1983 175.655 61.7363 175.639 60.8249C175.624 59.9142 175.919 57.0819 175.919 57.0819C175.919 57.0819 181.072 51.1832 181.416 49.2366C181.76 47.29 183.244 43.7761 183.244 43.7761L183.566 42.6329C183.566 42.6329 186.383 42.7609 187.219 42.5353C188.054 42.3097 190.511 40.2157 191.069 38.4636C191.627 36.7114 190.031 34.3884 189.342 33.5054C188.654 32.6217 186.247 31.8875 185.238 32.0459C184.23 32.2037 183.244 32.2598 183.244 32.2598C183.244 32.2598 182.187 22.4541 177.76 19.4785C174.282 17.1416 169.839 19.8902 169.839 19.8902L169.84 19.8896Z" fill="white"/>
<path d="M128.425 193.933C128.414 193.933 128.402 193.933 128.391 193.932C128.184 193.913 128.03 193.73 128.048 193.522L130.317 167.984C130.336 167.776 130.519 167.623 130.726 167.641C130.934 167.66 131.087 167.843 131.069 168.051L128.8 193.589C128.783 193.785 128.618 193.933 128.425 193.933Z" fill="#2E2E2E"/>
<path d="M204.066 194.042C203.872 194.042 203.707 193.893 203.69 193.696L201.524 168.049C201.507 167.842 201.661 167.658 201.868 167.641C202.075 167.624 202.258 167.778 202.276 167.986L204.442 193.632C204.46 193.839 204.305 194.023 204.098 194.04C204.087 194.041 204.077 194.042 204.066 194.042H204.066Z" fill="#2E2E2E"/>
<path d="M185.533 43.0987C184.655 43.0987 183.81 42.9105 183.022 42.5389C182.834 42.4496 182.753 42.2247 182.842 42.0358C182.93 41.8468 183.156 41.7659 183.344 41.8552C184.031 42.179 184.767 42.343 185.533 42.343C188.344 42.343 190.631 40.0781 190.631 37.2935C190.631 34.5089 188.344 32.2439 185.533 32.2439C184.828 32.2439 184.145 32.3837 183.505 32.6591C183.313 32.7415 183.091 32.6529 183.009 32.4612C182.927 32.2696 183.015 32.0474 183.207 31.9651C183.942 31.6488 184.725 31.4883 185.533 31.4883C188.761 31.4883 191.386 34.0923 191.386 37.2935C191.386 40.4947 188.761 43.0987 185.533 43.0987Z" fill="#2E2E2E"/>
<path d="M188.458 37.4022C188.458 37.4022 188.456 37.4022 188.454 37.4022C188.245 37.3995 188.078 37.2286 188.08 37.0196C188.089 36.2494 187.861 35.6273 187.419 35.2204C186.927 34.7671 186.164 34.5754 185.212 34.6661C185.006 34.6854 184.82 34.5332 184.801 34.3256C184.781 34.118 184.934 33.9332 185.141 33.9139C186.312 33.8025 187.277 34.062 187.93 34.6647C188.534 35.2211 188.847 36.0383 188.836 37.0293C188.833 37.2362 188.665 37.4029 188.458 37.4029V37.4022Z" fill="#2E2E2E"/>
<path d="M145.256 43.0987C144.354 43.0987 143.58 42.9319 142.822 42.5742C142.633 42.4849 142.552 42.26 142.641 42.0711C142.73 41.8822 142.955 41.8012 143.144 41.8905C143.798 42.1991 144.47 42.343 145.257 42.343C146.044 42.343 146.76 42.179 147.446 41.8552C147.634 41.7659 147.859 41.8469 147.948 42.0358C148.037 42.2247 147.956 42.4496 147.768 42.5389C146.98 42.9105 146.135 43.0987 145.257 43.0987H145.256Z" fill="#2E2E2E"/>
<path d="M155.751 35.9988C156.427 35.9988 156.974 35.0737 156.974 33.9325C156.974 32.7913 156.427 31.8662 155.751 31.8662C155.076 31.8662 154.529 32.7913 154.529 33.9325C154.529 35.0737 155.076 35.9988 155.751 35.9988Z" fill="#2E2E2E"/>
<path d="M150.757 28.7672C150.648 28.7672 150.54 28.7201 150.466 28.6288C150.334 28.4675 150.357 28.2295 150.518 28.0966C152.766 26.2497 156.395 25.6608 159.346 26.6635C159.543 26.7306 159.649 26.9451 159.582 27.143C159.515 27.3409 159.3 27.4468 159.103 27.3797C156.387 26.4566 153.053 26.9915 150.997 28.6813C150.927 28.7388 150.842 28.7672 150.758 28.7672H150.757Z" fill="#2E2E2E"/>
<path d="M174.095 35.9988C174.77 35.9988 175.317 35.0737 175.317 33.9325C175.317 32.7913 174.77 31.8662 174.095 31.8662C173.419 31.8662 172.872 32.7913 172.872 33.9325C172.872 35.0737 173.419 35.9988 174.095 35.9988Z" fill="#2E2E2E"/>
<path d="M179.035 29.0185C178.943 29.0185 178.851 28.9852 178.779 28.9174C176.829 27.1085 173.534 26.3757 170.767 27.1355C170.566 27.1909 170.358 27.0725 170.303 26.8712C170.248 26.6698 170.366 26.4622 170.567 26.4068C173.573 25.5813 177.161 26.3861 179.292 28.3631C179.445 28.505 179.454 28.7444 179.312 28.8973C179.238 28.9776 179.137 29.0185 179.035 29.0185Z" fill="#2E2E2E"/>
<path d="M162.069 43.167C161.127 43.167 160.408 42.9428 159.927 42.4985C159.498 42.1013 159.275 41.5477 159.265 40.8516C159.245 39.4171 160.61 38.1472 161.905 37.6808C162.863 37.3355 163.319 35.4443 163.156 32.4922C163.145 32.2839 163.304 32.1054 163.512 32.0943C163.721 32.0832 163.899 32.2424 163.91 32.4507C164.1 35.9058 163.511 37.905 162.16 38.3922C161.096 38.7756 160.004 39.7963 160.02 40.8412C160.026 41.3284 160.163 41.6889 160.439 41.9429C160.833 42.3069 161.51 42.4598 162.452 42.3975C162.66 42.3844 162.84 42.5414 162.854 42.7497C162.868 42.958 162.71 43.1379 162.502 43.1518C162.353 43.1615 162.208 43.1663 162.069 43.1663V43.167Z" fill="#2E2E2E"/>
<path d="M152.044 71.8694C151.921 71.8694 151.8 71.8099 151.728 71.6992C151.613 71.5248 151.661 71.2902 151.836 71.176C152.529 70.7193 153.097 70.0273 153.433 69.2288C155.098 65.2823 154.843 57.6253 154.84 57.5485C154.833 57.3402 154.996 57.1644 155.204 57.1575C155.411 57.1499 155.588 57.3132 155.594 57.5215C155.606 57.8426 155.856 65.4241 154.128 69.5229C153.733 70.4577 153.066 71.2695 152.25 71.8078C152.186 71.8501 152.113 71.8701 152.042 71.8701L152.044 71.8694Z" fill="#2E2E2E"/>
<path d="M165.824 60.5396C165.652 60.5396 165.478 60.5375 165.304 60.5334C162.497 60.4829 159.978 59.9971 157.822 59.0892C155.765 58.2228 153.973 56.9467 152.497 55.2956C149.807 52.2861 148.085 48.0365 147.233 42.3054C147.203 42.0992 147.345 41.9068 147.551 41.8756C147.757 41.8452 147.949 41.9871 147.98 42.194C149.712 53.8473 155.384 59.5992 165.32 59.7777C177.143 60.0594 182.122 50.4661 182.796 42.1656C182.813 41.9573 182.995 41.803 183.203 41.8196C183.411 41.8362 183.566 42.0189 183.549 42.2272C183.147 47.1757 181.411 51.6744 178.659 54.895C177.101 56.7198 175.234 58.1259 173.109 59.0753C170.933 60.0476 168.485 60.5396 165.825 60.5396H165.824Z" fill="#2E2E2E"/>
<path d="M204.061 167.761H127.821L127.83 167.373C128.085 157.478 129.721 118.755 130.316 105.718C130.325 105.51 130.503 105.348 130.71 105.357C130.918 105.367 131.079 105.544 131.07 105.752C130.482 118.622 128.88 156.529 128.596 167.006H203.287C202.987 155.597 201.681 117.156 200.813 105.764C200.797 105.556 200.953 105.375 201.161 105.359C201.367 105.344 201.55 105.499 201.566 105.707C202.444 117.244 203.772 156.473 204.052 167.374L204.061 167.761V167.761Z" fill="#2E2E2E"/>
<path d="M221.688 193.721C221.489 193.721 221.323 193.565 221.312 193.364C221.273 192.664 217.37 123.159 213.844 104.026C211.245 89.9277 203.443 81.5628 186.912 75.1521C186.632 75.0442 180.404 72.6263 178.777 71.8637C177.083 73.2941 172.741 76.9056 165.53 82.5281L165.299 82.7088L165.067 82.5288C160.183 78.7325 154.784 74.3667 151.838 71.8333C151.497 71.9218 151.01 72.0277 150.379 72.1654C146.079 73.1031 134.654 75.5943 126.124 82.6534C122.862 85.3536 118.827 89.7063 114.154 94.7461C110.522 98.6649 106.404 103.106 101.794 107.709L101.468 108.033L101.213 107.651C91.6078 93.2369 86.5047 85.4394 85.4881 83.8824L65.3875 94.7787C66.268 96.7522 71.1699 107.572 77.4596 118.267C81.5177 125.167 85.3492 130.663 88.8475 134.604C93.1634 139.465 96.9527 141.936 100.11 141.95C107.101 141.721 114.668 137.074 119.785 133.217C125.351 129.02 129.295 124.828 129.335 124.787C129.477 124.634 129.716 124.627 129.868 124.769C130.02 124.912 130.028 125.151 129.886 125.304C129.846 125.346 125.857 129.586 120.239 133.821C116.934 136.313 113.718 138.317 110.68 139.78C106.862 141.618 103.312 142.603 100.128 142.706H100.121H100.114C96.7316 142.695 92.7508 140.137 88.2822 135.104C84.7507 131.127 80.8895 125.589 76.8065 118.645C69.8644 106.84 64.6086 94.8845 64.5561 94.7648L64.4165 94.4465L85.741 82.8866L85.9311 83.1786C85.9808 83.2554 91.0086 90.9726 101.587 106.849C106.057 102.373 110.06 98.0539 113.603 94.2327C118.293 89.1727 122.344 84.8034 125.645 82.0714C129.363 78.9941 134.025 76.4212 139.502 74.4234C143.993 72.7855 147.892 71.9357 150.221 71.4278C150.943 71.27 151.514 71.1454 151.829 71.0541L152.026 70.9966L152.181 71.1309C155.037 73.5965 160.402 77.9402 165.301 81.7531C172.644 76.0213 176.958 72.4194 178.48 71.1288L178.674 70.9641L178.9 71.0824C179.774 71.5419 184.704 73.4851 187.187 74.449C195.613 77.7167 201.563 81.367 205.912 85.9376C208.186 88.3264 209.989 90.9339 211.427 93.9074C212.865 96.8823 213.9 100.148 214.589 103.891C218.124 123.07 222.03 192.624 222.068 193.324C222.08 193.532 221.921 193.711 221.713 193.722C221.706 193.722 221.698 193.722 221.691 193.722L221.688 193.721Z" fill="#2E2E2E"/>
<path d="M178.558 71.794C178.476 71.794 178.393 71.767 178.324 71.7117C177.559 71.1034 177.017 70.1706 176.677 69.5215C174.617 65.5992 175.23 57.6903 175.257 57.3561C175.274 57.1478 175.455 56.9928 175.664 57.0101C175.872 57.0267 176.026 57.2094 176.009 57.417C176.003 57.4966 175.386 65.4415 177.344 69.17C177.653 69.7582 178.139 70.6003 178.792 71.12C178.955 71.2501 178.982 71.4875 178.853 71.6508C178.778 71.7449 178.668 71.7933 178.557 71.7933L178.558 71.794Z" fill="#2E2E2E"/>
<path d="M166.81 51.8478C164.912 52.2561 163.556 51.7869 162.539 50.6901C161.761 49.8514 161.538 49.3213 161.869 48.8888C162.287 48.3422 163.833 48.2494 166.088 47.8508C167.734 47.5602 169.924 46.5762 170.524 47.6349C171.041 48.547 169.826 51.1987 166.81 51.8478Z" fill="#2E2E2E"/>
<path d="M163.649 51.0546C164.27 49.5239 167.323 48.2022 168.74 50.519C167.023 51.6802 164.416 51.5937 163.649 51.0546Z" fill="white"/>
<path d="M165.442 52.2012C164.144 52.2012 163.07 51.7293 162.185 50.775C161.523 50.0609 160.923 49.2312 161.492 48.4872C161.903 47.9496 162.873 47.798 164.479 47.5468C164.919 47.4783 165.417 47.4001 165.945 47.3067C166.347 47.2361 166.798 47.1178 167.235 47.0036C168.685 46.6244 170.184 46.2327 170.775 47.2762C171.03 47.7247 170.989 48.3987 170.663 49.1253C170.162 50.2442 168.887 51.5985 166.813 52.0455C166.33 52.1493 165.873 52.2012 165.442 52.2012ZM169.393 47.3621C168.851 47.3621 168.11 47.5558 167.426 47.7344C166.974 47.852 166.508 47.9738 166.077 48.0506C165.54 48.1454 165.039 48.2236 164.596 48.2928C163.374 48.4838 162.318 48.6485 162.091 48.946C162.014 49.0471 161.833 49.2837 162.738 50.2602C163.734 51.3341 164.978 51.6663 166.654 51.3058C168.453 50.9182 169.549 49.7654 169.974 48.8153C170.22 48.2672 170.223 47.8347 170.118 47.6485C170 47.4396 169.736 47.3614 169.392 47.3614L169.393 47.3621Z" fill="#2E2E2E"/>
<path d="M163.649 51.4325C163.615 51.4325 163.581 51.4284 163.547 51.4187C163.346 51.3626 163.228 51.1543 163.284 50.953C163.625 49.7267 164.979 48.7379 166.433 48.6521C167.763 48.5739 168.822 49.2541 169.34 50.5191C169.419 50.7122 169.327 50.9329 169.134 51.0118C168.941 51.0907 168.721 50.9986 168.642 50.8056C168.111 49.5088 167.057 49.3724 166.477 49.4063C165.349 49.4728 164.266 50.2409 164.011 51.1557C163.965 51.3232 163.813 51.4325 163.648 51.4325H163.649Z" fill="#2E2E2E"/>
<path d="M137.096 46.3536C136.931 46.3536 136.779 46.2442 136.732 46.0775C136.676 45.8768 136.793 45.6678 136.994 45.6118C140.528 44.6208 143.477 41.8466 146.012 37.1313C148.204 33.054 149.706 28.1955 150.914 24.2912C151.116 23.6366 151.308 23.0179 151.496 22.42C152.854 18.1248 155.867 15.2018 159.559 14.6004C163.206 14.006 166.89 15.7941 169.714 19.5129C172.063 17.8314 174.236 17.3497 176.179 18.0819C179.513 19.3378 182.063 24.1099 183.757 32.2658C183.8 32.47 183.669 32.6706 183.465 32.7129C183.261 32.7551 183.061 32.6243 183.019 32.4201C182.231 28.6314 181.247 25.5569 180.092 23.2823C178.876 20.8879 177.47 19.3766 175.914 18.7905C174.145 18.1241 172.109 18.6465 169.862 20.3433L169.555 20.5751L169.329 20.2644C166.651 16.5775 163.134 14.7859 159.68 15.3485C156.276 15.9028 153.486 18.6327 152.216 22.6498C152.028 23.2449 151.838 23.8628 151.635 24.5161C150.418 28.4515 148.904 33.3488 146.678 37.4904C144.041 42.396 140.94 45.2907 137.199 46.3404C137.165 46.3501 137.13 46.3543 137.096 46.3543L137.096 46.3536Z" fill="#2E2E2E"/>
<path d="M169.634 20.4196C169.601 20.4196 169.568 20.4155 169.535 20.4065C169.334 20.3518 169.216 20.1435 169.27 19.9422L171.218 12.8028C171.273 12.6014 171.48 12.4831 171.681 12.5377C171.882 12.5924 172.001 12.8007 171.946 13.0021L169.999 20.1415C169.953 20.3096 169.801 20.4196 169.634 20.4196Z" fill="#2E2E2E"/>
<path d="M322.94 194.059H1.06021C0.474306 194.059 0 193.835 0 193.559C0 193.283 0.474306 193.059 1.06021 193.059H322.94C323.526 193.059 324 193.283 324 193.559C324 193.835 323.526 194.059 322.94 194.059Z" fill="#2E2E2E"/>
</svg>
