<svg width="324" height="200" viewBox="0 0 324 200" fill="none" xmlns="http://www.w3.org/2000/svg">
<path d="M56.3955 199.607V24.5668C56.3955 19.18 60.798 14.7974 66.2093 14.7974H203.715C209.126 14.7974 213.529 19.18 213.529 24.5668V199.607H56.3955Z" fill="#2E2E2E"/>
<path d="M203.714 20.8706H66.2086C64.1583 20.8706 62.4956 22.5257 62.4956 24.5668V199.562H207.427V24.5668C207.427 22.5257 205.764 20.8706 203.714 20.8706Z" fill="white"/>
<path d="M213.528 200C213.309 200 213.133 199.824 213.133 199.607V24.5668C213.133 19.3966 208.908 15.1903 203.714 15.1903H66.2086C61.0149 15.1903 56.7896 19.3966 56.7896 24.5668V199.607C56.7896 199.824 56.6125 200 56.3948 200C56.1771 200 56 199.824 56 199.607V24.5668C56 18.9632 60.5796 14.4043 66.2086 14.4043H203.714C209.343 14.4043 213.923 18.9632 213.923 24.5668V199.607C213.923 199.824 213.745 200 213.528 200Z" fill="#2E2E2E"/>
<path d="M207.822 199.956H62.1011V24.5667C62.1011 22.3122 63.944 20.4775 66.2088 20.4775H203.714C205.979 20.4775 207.822 22.3122 207.822 24.5667V199.955V199.956ZM62.8907 199.17H207.032V24.5667C207.032 22.7455 205.544 21.2636 203.714 21.2636H66.2088C64.3794 21.2636 62.8907 22.7455 62.8907 24.5667V199.169V199.17Z" fill="#2E2E2E"/>
<path d="M144.462 9.85018C144.462 4.62698 140.209 0.393066 134.962 0.393066C129.715 0.393066 125.462 4.62698 125.462 9.85018C125.462 10.7912 124.695 11.5543 123.75 11.5543H112.409C106.241 11.5543 101.24 16.5324 101.24 22.6729V27.7941C101.24 28.2362 101.6 28.5944 102.044 28.5944H167.879C168.324 28.5944 168.683 28.2362 168.683 27.7941V22.6729C168.683 16.5324 163.683 11.5543 157.514 11.5543H146.174C145.228 11.5543 144.462 10.7912 144.462 9.85018Z" fill="#C1C7D6"/>
<path d="M102.934 23.2595C102.934 17.5349 107.595 12.8938 113.347 12.8938H124.336C125.772 12.8938 127.062 11.7289 127.17 10.3031C127.539 5.42866 130.942 1.10064 136.668 1.14176C137.739 1.14967 139.629 1.91674 140.589 2.24176C139.013 1.08404 137.071 0.39209 134.962 0.39209C129.719 0.39209 125.468 4.62047 125.462 9.83893C125.462 10.7816 124.697 11.5534 123.751 11.5534H112.411C106.242 11.5534 101.242 16.5314 101.242 22.6719V27.7931C101.242 28.2352 101.602 28.5934 102.046 28.5934H102.935V23.2595H102.934Z" fill="white"/>
<path d="M167.879 28.9874H102.044C101.383 28.9874 100.845 28.452 100.845 27.7941V22.6729C100.845 16.3252 106.033 11.1613 112.409 11.1613H123.75C124.476 11.1613 125.067 10.5729 125.067 9.85014C125.067 4.41896 129.506 0 134.962 0C140.417 0 144.856 4.41896 144.856 9.85014C144.856 10.5729 145.447 11.1613 146.174 11.1613H157.514C163.891 11.1613 169.078 16.3252 169.078 22.6729V27.7941C169.078 28.452 168.54 28.9874 167.879 28.9874ZM112.41 11.9473C106.469 11.9473 101.636 16.7585 101.636 22.6729V27.7941C101.636 28.0187 101.819 28.2005 102.044 28.2005H167.879C168.105 28.2005 168.288 28.0179 168.288 27.7941V22.6729C168.288 16.7585 163.455 11.9473 157.513 11.9473H146.173C145.011 11.9473 144.066 11.0063 144.066 9.85014C144.066 4.85232 139.981 0.78605 134.961 0.78605C129.94 0.78605 125.856 4.85232 125.856 9.85014C125.856 11.0063 124.91 11.9473 123.749 11.9473H112.408H112.41Z" fill="#2E2E2E"/>
<path d="M134.962 13.3437C137.373 13.3437 139.327 11.3982 139.327 8.99825C139.327 6.59834 137.373 4.65283 134.962 4.65283C132.551 4.65283 130.597 6.59834 130.597 8.99825C130.597 11.3982 132.551 13.3437 134.962 13.3437Z" fill="white"/>
<path d="M134.962 13.7371C132.337 13.7371 130.202 11.6115 130.202 8.9987C130.202 6.38591 132.337 4.26025 134.962 4.26025C137.586 4.26025 139.722 6.38591 139.722 8.9987C139.722 11.6115 137.586 13.7371 134.962 13.7371ZM134.962 5.0463C132.772 5.0463 130.991 6.81927 130.991 8.9987C130.991 11.1781 132.772 12.9511 134.962 12.9511C137.151 12.9511 138.932 11.1781 138.932 8.9987C138.932 6.81927 137.151 5.0463 134.962 5.0463Z" fill="#2E2E2E"/>
<path d="M192.746 48.2329H77.1777V39.3491H192.746V48.2329ZM77.9674 47.4469H191.957V40.136H77.9674V47.4469Z" fill="#2E2E2E"/>
<path d="M85.6305 83.9704C80.2327 83.9704 75.8413 79.5989 75.8413 74.2254C75.8413 68.852 80.2327 64.4805 85.6305 64.4805C91.0283 64.4805 95.4197 68.852 95.4197 74.2254C95.4197 79.5989 91.0283 83.9704 85.6305 83.9704ZM85.6305 65.2665C80.668 65.2665 76.6309 69.2853 76.6309 74.2254C76.6309 79.1655 80.668 83.1844 85.6305 83.1844C90.593 83.1844 94.6301 79.1655 94.6301 74.2254C94.6301 69.2853 90.593 65.2665 85.6305 65.2665Z" fill="#2E2E2E"/>
<path d="M92.2732 80.8382C95.9419 77.186 95.9419 71.2647 92.2732 67.6125C88.6045 63.9604 82.6563 63.9604 78.9876 67.6125C75.3188 71.2647 75.3188 77.186 78.9876 80.8382C82.6563 84.4903 88.6045 84.4903 92.2732 80.8382Z" fill="#9F54F8"/>
<path d="M77.6518 75.1067C77.6518 69.942 81.858 65.7548 87.0462 65.7548C88.5285 65.7548 89.9306 66.098 91.1777 66.7069C89.6859 65.7144 87.8938 65.1348 85.9642 65.1348C80.7761 65.1348 76.5698 69.322 76.5698 74.4867C76.5698 78.1758 78.7162 81.365 81.8326 82.8865C79.312 81.2093 77.651 78.3513 77.651 75.1067H77.6518Z" fill="white"/>
<path d="M85.6305 83.9704C80.2327 83.9704 75.8413 79.5989 75.8413 74.2254C75.8413 68.852 80.2327 64.4805 85.6305 64.4805C91.0283 64.4805 95.4197 68.852 95.4197 74.2254C95.4197 79.5989 91.0283 83.9704 85.6305 83.9704ZM85.6305 65.2665C80.668 65.2665 76.6309 69.2853 76.6309 74.2254C76.6309 79.1655 80.668 83.1844 85.6305 83.1844C90.593 83.1844 94.6301 79.1655 94.6301 74.2254C94.6301 69.2853 90.593 65.2665 85.6305 65.2665Z" fill="#2E2E2E"/>
<path d="M85.5908 77.6332L80.6736 72.6813C80.5203 72.5271 80.5218 72.278 80.6768 72.1253C80.8317 71.9727 81.0819 71.9743 81.2352 72.1285L85.4605 76.383L93.5195 63.9272C93.6379 63.7445 93.8818 63.6915 94.0653 63.8093C94.2488 63.9272 94.3012 64.1699 94.1836 64.3526L85.5916 77.6332H85.5908Z" fill="#2E2E2E"/>
<path d="M193.711 70.9674H104.377C104.159 70.9674 103.982 70.7911 103.982 70.5744C103.982 70.3577 104.16 70.1814 104.377 70.1814H193.711C193.93 70.1814 194.106 70.3577 194.106 70.5744C194.106 70.7911 193.929 70.9674 193.711 70.9674Z" fill="#2E2E2E"/>
<path d="M186.133 78.8669H104.376C104.158 78.8669 103.981 78.6905 103.981 78.4738C103.981 78.2572 104.159 78.0808 104.376 78.0808H186.133C186.352 78.0808 186.528 78.2572 186.528 78.4738C186.528 78.6905 186.351 78.8669 186.133 78.8669Z" fill="#2E2E2E"/>
<path d="M85.6304 87.0793C78.392 87.0793 72.5024 81.2171 72.5024 74.0106C72.5024 66.8041 78.3912 60.9419 85.6304 60.9419C92.8696 60.9419 98.7584 66.8041 98.7584 74.0106C98.7584 81.2171 92.8696 87.0793 85.6304 87.0793ZM85.6304 61.7287C78.8273 61.7287 73.2921 67.2382 73.2921 74.0114C73.2921 80.7845 78.8265 86.294 85.6304 86.294C92.4343 86.294 97.9688 80.7845 97.9688 74.0114C97.9688 67.2382 92.4343 61.7287 85.6304 61.7287Z" fill="#2E2E2E"/>
<path d="M85.6187 184.316C78.3803 184.316 72.4907 178.454 72.4907 171.247C72.4907 164.041 78.3795 158.179 85.6187 158.179C92.8579 158.179 98.7467 164.041 98.7467 171.247C98.7467 178.454 92.8579 184.316 85.6187 184.316ZM85.6187 158.966C78.8156 158.966 73.2803 164.475 73.2803 171.248C73.2803 178.021 78.8148 183.531 85.6187 183.531C92.4226 183.531 97.9571 178.021 97.9571 171.248C97.9571 164.475 92.4226 158.966 85.6187 158.966Z" fill="#2E2E2E"/>
<path d="M92.2732 113.793C95.9419 110.141 95.9419 104.219 92.2732 100.567C88.6045 96.9149 82.6563 96.9149 78.9876 100.567C75.3188 104.219 75.3188 110.141 78.9876 113.793C82.6563 117.445 88.6045 117.445 92.2732 113.793Z" fill="#9F54F8"/>
<path d="M77.6518 108.061C77.6518 102.896 81.858 98.7086 87.0462 98.7086C88.5285 98.7086 89.9306 99.0518 91.1777 99.6607C89.6859 98.6683 87.8938 98.0886 85.9642 98.0886C80.7761 98.0886 76.5698 102.276 76.5698 107.441C76.5698 111.13 78.7162 114.319 81.8326 115.84C79.312 114.163 77.651 111.305 77.651 108.061H77.6518Z" fill="white"/>
<path d="M85.6305 116.925C80.2327 116.925 75.8413 112.553 75.8413 107.18C75.8413 101.806 80.2327 97.4346 85.6305 97.4346C91.0283 97.4346 95.4197 101.806 95.4197 107.18C95.4197 112.553 91.0283 116.925 85.6305 116.925ZM85.6305 98.2198C80.668 98.2198 76.6309 102.239 76.6309 107.179C76.6309 112.119 80.668 116.138 85.6305 116.138C90.593 116.138 94.6301 112.119 94.6301 107.179C94.6301 102.239 90.593 98.2198 85.6305 98.2198Z" fill="#2E2E2E"/>
<path d="M85.6305 116.925C80.2327 116.925 75.8413 112.553 75.8413 107.18C75.8413 101.806 80.2327 97.4346 85.6305 97.4346C91.0283 97.4346 95.4197 101.806 95.4197 107.18C95.4197 112.553 91.0283 116.925 85.6305 116.925ZM85.6305 98.2198C80.668 98.2198 76.6309 102.239 76.6309 107.179C76.6309 112.119 80.668 116.138 85.6305 116.138C90.593 116.138 94.6301 112.119 94.6301 107.179C94.6301 102.239 90.593 98.2198 85.6305 98.2198Z" fill="#2E2E2E"/>
<path d="M85.5908 110.587L80.6736 105.635C80.5203 105.481 80.5218 105.232 80.6768 105.079C80.8317 104.927 81.0819 104.928 81.2352 105.082L85.4605 109.337L93.5195 96.881C93.6379 96.6984 93.8818 96.6454 94.0653 96.7632C94.2488 96.881 94.3012 97.1238 94.1836 97.3065L85.5916 110.587H85.5908Z" fill="#2E2E2E"/>
<path d="M193.711 103.922H104.377C104.159 103.922 103.982 103.745 103.982 103.529C103.982 103.312 104.16 103.135 104.377 103.135H193.711C193.93 103.135 194.106 103.312 194.106 103.529C194.106 103.745 193.929 103.922 193.711 103.922Z" fill="#2E2E2E"/>
<path d="M158.058 112.44H104.376C104.158 112.44 103.981 112.264 103.981 112.047C103.981 111.83 104.159 111.654 104.376 111.654H158.058C158.277 111.654 158.453 111.83 158.453 112.047C158.453 112.264 158.276 112.44 158.058 112.44Z" fill="#2E2E2E"/>
<path d="M92.2737 146.746C95.9424 143.094 95.9424 137.173 92.2737 133.521C88.605 129.869 82.6568 129.869 78.988 133.521C75.3193 137.173 75.3193 143.094 78.988 146.746C82.6568 150.399 88.605 150.399 92.2737 146.746Z" fill="#9F54F8"/>
<path d="M77.6518 141.015C77.6518 135.85 81.858 131.663 87.0462 131.663C88.5285 131.663 89.9306 132.006 91.1777 132.615C89.6859 131.622 87.8938 131.043 85.9642 131.043C80.7761 131.043 76.5698 135.23 76.5698 140.395C76.5698 144.084 78.7162 147.273 81.8326 148.794C79.312 147.117 77.651 144.259 77.651 141.015H77.6518Z" fill="white"/>
<path d="M85.6305 149.879C80.2327 149.879 75.8413 145.507 75.8413 140.134C75.8413 134.76 80.2327 130.389 85.6305 130.389C91.0283 130.389 95.4197 134.76 95.4197 140.134C95.4197 145.507 91.0283 149.879 85.6305 149.879ZM85.6305 131.175C80.668 131.175 76.6309 135.194 76.6309 140.134C76.6309 145.074 80.668 149.093 85.6305 149.093C90.593 149.093 94.6301 145.074 94.6301 140.134C94.6301 135.194 90.593 131.175 85.6305 131.175Z" fill="#2E2E2E"/>
<path d="M85.6305 149.879C80.2327 149.879 75.8413 145.507 75.8413 140.134C75.8413 134.76 80.2327 130.389 85.6305 130.389C91.0283 130.389 95.4197 134.76 95.4197 140.134C95.4197 145.507 91.0283 149.879 85.6305 149.879ZM85.6305 131.175C80.668 131.175 76.6309 135.194 76.6309 140.134C76.6309 145.074 80.668 149.093 85.6305 149.093C90.593 149.093 94.6301 145.074 94.6301 140.134C94.6301 135.194 90.593 131.175 85.6305 131.175Z" fill="#2E2E2E"/>
<path d="M85.5908 143.541L80.6736 138.589C80.5203 138.435 80.5218 138.186 80.6768 138.033C80.8317 137.881 81.0819 137.882 81.2352 138.036L85.4605 142.291L93.5195 129.835C93.6379 129.652 93.8818 129.599 94.0653 129.717C94.2488 129.835 94.3012 130.078 94.1836 130.261L85.5916 143.541H85.5908Z" fill="#2E2E2E"/>
<path d="M193.711 136.875H104.377C104.159 136.875 103.982 136.698 103.982 136.482C103.982 136.265 104.16 136.089 104.377 136.089H193.711C193.93 136.089 194.106 136.265 194.106 136.482C194.106 136.698 193.929 136.875 193.711 136.875Z" fill="#2E2E2E"/>
<path d="M177.155 144.8H104.376C104.158 144.8 103.981 144.624 103.981 144.407C103.981 144.191 104.159 144.014 104.376 144.014H177.155C177.374 144.014 177.55 144.191 177.55 144.407C177.55 144.624 177.373 144.8 177.155 144.8Z" fill="#2E2E2E"/>
<path d="M92.2615 178.075C95.9302 174.423 95.9302 168.502 92.2615 164.85C88.5928 161.197 82.6446 161.197 78.9758 164.85C75.3071 168.502 75.3071 174.423 78.9758 178.075C82.6446 181.727 88.5928 181.727 92.2615 178.075Z" fill="#C1C7D6"/>
<path d="M77.6396 172.344C77.6396 167.179 81.8458 162.992 87.0339 162.992C88.5163 162.992 89.9184 163.335 91.1655 163.944C89.6737 162.951 87.8816 162.372 85.952 162.372C80.7639 162.372 76.5576 166.559 76.5576 171.724C76.5576 175.413 78.704 178.602 81.8204 180.123C79.2998 178.446 77.6388 175.588 77.6388 172.344H77.6396Z" fill="white"/>
<path d="M85.6188 181.207C80.2209 181.207 75.8296 176.836 75.8296 171.462C75.8296 166.089 80.2209 161.718 85.6188 161.718C91.0166 161.718 95.408 166.089 95.408 171.462C95.408 176.836 91.0166 181.207 85.6188 181.207ZM85.6188 162.504C80.6563 162.504 76.6192 166.522 76.6192 171.462C76.6192 176.403 80.6563 180.421 85.6188 180.421C90.5813 180.421 94.6183 176.403 94.6183 171.462C94.6183 166.522 90.5813 162.504 85.6188 162.504Z" fill="#2E2E2E"/>
<path d="M85.6188 181.207C80.2209 181.207 75.8296 176.836 75.8296 171.462C75.8296 166.089 80.2209 161.718 85.6188 161.718C91.0166 161.718 95.408 166.089 95.408 171.462C95.408 176.836 91.0166 181.207 85.6188 181.207ZM85.6188 162.504C80.6563 162.504 76.6192 166.522 76.6192 171.462C76.6192 176.403 80.6563 180.421 85.6188 180.421C90.5813 180.421 94.6183 176.403 94.6183 171.462C94.6183 166.522 90.5813 162.504 85.6188 162.504Z" fill="#2E2E2E"/>
<path d="M193.699 168.205H104.366C104.147 168.205 103.971 168.028 103.971 167.811C103.971 167.595 104.148 167.418 104.366 167.418H193.699C193.918 167.418 194.094 167.595 194.094 167.811C194.094 168.028 193.917 168.205 193.699 168.205Z" fill="#2E2E2E"/>
<path d="M172.415 176.271H104.365C104.146 176.271 103.97 176.094 103.97 175.878C103.97 175.661 104.147 175.485 104.365 175.485H172.415C172.634 175.485 172.81 175.661 172.81 175.878C172.81 176.094 172.633 176.271 172.415 176.271Z" fill="#2E2E2E"/>
<path d="M130.632 93.271C128.536 94.0657 128.435 94.0436 128.253 95.5509C128.071 97.0573 135.592 108.238 136.854 109.531C138.116 110.823 143.297 118.224 143.297 118.224L147.491 122.977L156.481 117.116C156.481 117.116 154.218 109.855 154.019 108.435C153.82 107.015 145.536 102.843 145.536 102.843L130.632 93.2718V93.271Z" fill="white"/>
<path d="M137.976 75.3525L127.733 92.8623L181.744 123.513C181.744 123.513 185.577 119.412 186.903 118.093C189.329 115.679 196.867 108.704 196.867 108.704L137.976 75.3525Z" fill="#FFBF31"/>
<path d="M137.715 75.8395L137.126 75.1499L108.747 69.8713C108.747 69.8713 108.274 70.1892 108.323 70.4692C108.372 70.7499 117.961 81.7997 117.961 81.7997L125.838 91.3335C125.838 91.3335 126.787 92.8487 127.809 92.3766C128.832 91.9045 130.767 89.6286 130.767 89.6286L132.051 87.8564L133.341 83.1417L136.193 80.827L137.715 75.8395Z" fill="white"/>
<path d="M118.121 71.615L108.747 69.8713C108.747 69.8713 108.274 70.1892 108.323 70.4692C108.352 70.6368 111.788 74.6501 114.549 77.8528C115.395 76.1518 118.12 71.615 118.12 71.615H118.121Z" fill="#FFBF31"/>
<path d="M186.22 118.878C186.154 118.878 186.087 118.861 186.025 118.826L132.204 88.3467C132.014 88.2392 131.948 87.9996 132.056 87.8106C132.164 87.6216 132.405 87.556 132.594 87.6635L186.416 118.143C186.606 118.251 186.672 118.49 186.564 118.679C186.491 118.807 186.357 118.878 186.22 118.878Z" fill="#2E2E2E"/>
<path d="M192.174 113.167C192.108 113.167 192.041 113.15 191.979 113.115L136.267 81.5308C136.077 81.4233 136.011 81.1837 136.119 80.9947C136.227 80.8057 136.468 80.74 136.658 80.8476L192.37 112.432C192.559 112.54 192.625 112.779 192.517 112.968C192.444 113.095 192.311 113.167 192.174 113.167Z" fill="#2E2E2E"/>
<path d="M127.643 93.3509C127.533 93.3509 127.422 93.3051 127.345 93.2149L107.574 70.4321C107.411 70.2447 107.386 69.9845 107.51 69.7694C107.634 69.5543 107.872 69.4436 108.117 69.4879L137.923 74.8954C138.137 74.9341 138.279 75.1389 138.24 75.3524C138.201 75.566 137.996 75.7075 137.781 75.6688L108.563 70.3681L127.943 92.7009C128.085 92.8654 128.067 93.1137 127.902 93.2553C127.828 93.3193 127.735 93.3509 127.644 93.3509H127.643Z" fill="#2E2E2E"/>
<path d="M114.697 78.2523C114.63 78.2523 114.564 78.2357 114.502 78.2001C114.313 78.0926 114.247 77.8522 114.355 77.664L117.778 71.699C117.886 71.5108 118.127 71.4451 118.316 71.5527C118.505 71.6602 118.571 71.9006 118.463 72.0889L115.04 78.0538C114.967 78.1811 114.834 78.2523 114.697 78.2523Z" fill="#2E2E2E"/>
<path d="M181.379 123.783C181.313 123.783 181.246 123.766 181.185 123.732L127.563 93.3651C127.429 93.2892 127.339 93.1587 127.317 93.0076C127.294 92.8566 127.341 92.7056 127.445 92.5941L131.93 87.8145L132.737 83.4422C132.769 83.1899 132.908 82.963 133.118 82.8182L136.022 80.8634L137.49 75.1317L138.002 74.915L196.894 108.267C197.084 108.374 197.149 108.614 197.041 108.803C196.933 108.992 196.693 109.058 196.503 108.95L138.112 75.8822L136.713 81.3474L133.563 83.4683C133.54 83.4841 133.523 83.5126 133.519 83.5434L133.515 83.5727L132.665 88.1838L128.274 92.8637L181.576 123.049C181.765 123.157 181.831 123.396 181.723 123.585C181.65 123.713 181.517 123.784 181.379 123.784V123.783Z" fill="#2E2E2E"/>
<path d="M147.54 105.163C148.52 104.179 148.542 100.486 150.436 97.9004C152.329 95.3145 154.318 96.8811 154.2 98.3172C153.662 104.867 154.535 103.856 154.194 108.464C154.047 110.438 154.534 112.545 154.783 113.546C154.986 114.358 154.66 116.077 155.583 117.281L147.541 105.163H147.54Z" fill="white"/>
<path d="M156.838 117.674C156.707 117.674 156.577 117.608 156.502 117.488C154.034 113.522 153.809 109.581 153.798 108.468C153.786 107.132 153.724 106.31 153.663 105.515C153.547 103.984 153.446 102.661 153.806 98.2854C153.852 97.735 153.491 97.1743 152.967 96.9806C152.283 96.7275 151.476 97.1467 150.755 98.132C149.729 99.5333 149.35 101.059 149.045 102.284C148.786 103.324 148.582 104.145 148.08 104.65C147.926 104.804 147.676 104.805 147.521 104.652C147.366 104.499 147.365 104.25 147.519 104.096C147.867 103.746 148.058 102.981 148.278 102.095C148.6 100.803 148.999 99.1948 150.117 97.6686C151.46 95.8355 152.751 96.0617 153.243 96.2436C154.1 96.5607 154.668 97.4464 154.594 98.3487C154.24 102.662 154.338 103.956 154.451 105.455C154.51 106.225 154.576 107.098 154.589 108.46C154.598 109.522 154.814 113.28 157.174 117.074C157.29 117.258 157.232 117.501 157.047 117.615C156.981 117.654 156.91 117.674 156.839 117.674H156.838Z" fill="#2E2E2E"/>
<path d="M147.107 123.461C146.993 123.461 146.881 123.413 146.803 123.319C144.327 120.348 141.256 116.168 138.787 112.811C137.684 111.31 136.732 110.013 136.014 109.073C135.843 108.848 135.642 108.587 135.418 108.297C133.142 105.336 128.904 99.8258 127.967 96.8857C127.669 95.9509 127.411 94.6833 127.87 93.9502C128.057 93.6521 128.347 93.4655 128.708 93.4117C128.924 93.3793 129.125 93.5271 129.158 93.7422C129.19 93.9565 129.042 94.1574 128.826 94.1898C128.692 94.2096 128.604 94.2642 128.54 94.367C128.316 94.7244 128.385 95.599 128.719 96.6492C129.614 99.4581 133.958 105.105 136.044 107.82C136.268 108.112 136.47 108.374 136.642 108.599C137.363 109.545 138.318 110.843 139.423 112.347C141.885 115.696 144.948 119.865 147.409 122.817C147.548 122.984 147.525 123.233 147.357 123.371C147.283 123.432 147.194 123.461 147.105 123.461H147.107Z" fill="#2E2E2E"/>
<path d="M159.285 115.653L144.6 124.66C144.6 124.66 153.37 137.197 157.921 142.425C162.971 148.225 168.709 153.379 170.712 154.083C172.714 154.787 172.684 155.045 174.004 154.88C175.323 154.716 184.311 151.401 187.908 148.843C191.506 146.285 197.956 141.22 197.956 141.22C197.956 141.22 199.495 151.89 199.948 153.012C200.402 154.135 201.375 161.438 201.375 161.438L202.323 175.72L253.66 175.77L254.612 170.546C254.612 170.546 259.586 170.181 261.482 169.138C263.378 168.095 264.467 167.169 265.894 164.626C267.321 162.084 267.42 152.149 267.47 151.205C267.52 150.261 266.672 137.444 266.272 134.812C265.873 132.179 265.673 121.697 262.879 119.114C260.051 121.002 252.898 123.039 247.01 121.896C241.121 120.754 235.103 118.096 233.396 115.774C231.689 113.452 229.295 107.796 229.12 105.544C228.946 103.293 228.297 99.5421 228.297 99.5421L220.619 97.9233C220.619 97.9233 208.976 100.104 206.718 101.86C204.46 103.615 194.097 110.126 188.999 115.779C183.9 121.433 174.177 131.036 174.177 131.036L174.303 130.581L159.285 115.655L159.285 115.653Z" fill="#9F54F8"/>
<path d="M158.174 116.864L173.129 131.878L170.688 135.652C170.688 135.652 184.011 122.942 189.534 117.699C195.412 112.118 202.024 106.133 207.207 103.624C215.701 99.5136 222.72 99.0541 222.72 99.0541L221.312 97.8442C221.312 97.8442 212.247 98.9553 206.458 102.134C203.949 103.512 194.099 110.655 189 116.309C183.902 121.962 174.179 131.565 174.179 131.565L174.305 131.11L159.287 116.184L158.173 116.867L158.174 116.864Z" fill="white"/>
<path d="M201.749 154.23C201.47 153.052 199.928 143.438 199.729 139.886C199.362 139.7 198.489 140.557 198.3 140.705C198.751 143.735 199.586 152.599 199.928 153.447C200.382 154.57 201.213 162.091 201.213 162.091L202.298 176.073L203.712 176.279C203.712 176.279 203.396 161.172 201.749 154.23Z" fill="white"/>
<path d="M231.389 74.5553C228.7 86.1626 226.147 106.497 232.688 114.918C241.109 125.76 267.752 124.95 268.57 111.421C269.2 101.007 261.528 95.0076 258.846 83.4565C256.517 73.4229 261.624 56.847 254.829 48.2424C248.034 39.6377 239.796 39.9865 232.574 40.6594C225.988 41.2731 219.129 38.1724 216.005 44.6941C214.892 47.0151 215.377 49.7995 217.013 51.6009C219.901 54.7823 225.385 54.7933 227.715 57.6979C229.224 59.5784 229.641 63.6637 229.712 65.8747L231.389 74.5561V74.5553Z" fill="white"/>
<path d="M201.969 176L199 199H259.5L258.9 197.641L255.745 184.355L254 176H201.969Z" fill="#2E2E2E"/>
<path d="M203.812 176.28H201.949L198.988 199.264L200.853 199.253L203.812 176.28Z" fill="white"/>
<path d="M217.946 52.6216C217.946 52.6216 216.184 58.7321 215.588 60.6869C214.992 62.6417 214.481 64.8552 212.952 65.8682C211.424 66.8812 211.015 67.188 210.414 68.6004C209.814 70.0127 212.41 71.0977 212.692 71.1871C213.601 71.4733 212.989 71.2045 212.989 71.2045C212.989 71.2045 212.231 78.46 212.696 80.8277C213.16 83.1945 213.932 84.1205 216.323 85.3265C218.713 86.5325 222.583 86.1023 222.583 86.1023L222.169 93.6512L221.825 98.0472C221.825 98.0472 224.552 99.1108 228.836 99.4367C227.714 88.8186 230.85 76.6823 231.213 74.5812C234.575 73.8165 235.636 69.0598 234.311 68.0302C232.986 67.0006 231.765 65.5701 229.903 65.8445C229.683 64.4123 229.969 59.9404 227.378 57.3181C226.105 56.0291 217.946 52.6216 217.946 52.6216Z" fill="white"/>
<path d="M256.157 170.75C255.613 170.75 255.043 170.733 254.446 170.701C254.228 170.689 254.061 170.504 254.073 170.287C254.085 170.071 254.27 169.903 254.489 169.916C258.453 170.132 261.145 169.625 262.959 168.322C264.734 167.047 265.737 164.945 266.115 161.703C266.856 155.361 267.725 142.571 265.232 128.17C264.675 124.953 264.025 122.143 263.243 119.582C263.179 119.374 263.298 119.155 263.506 119.091C263.715 119.029 263.935 119.146 263.998 119.353C264.79 121.946 265.447 124.786 266.01 128.036C268.52 142.534 267.645 155.409 266.899 161.793C266.494 165.27 265.389 167.546 263.421 168.96C261.735 170.17 259.4 170.75 256.156 170.75H256.157Z" fill="#2E2E2E"/>
<path d="M220.221 64.7681C220.45 63.8152 220.179 62.9346 219.618 62.8013C219.056 62.668 218.416 63.3324 218.188 64.2854C217.959 65.2383 218.23 66.1188 218.791 66.2521C219.353 66.3854 219.993 65.721 220.221 64.7681Z" fill="#2E2E2E"/>
<path d="M223.951 61.1941C223.86 61.1941 223.769 61.1632 223.694 61.1C221.517 59.2448 219.944 58.9308 217.962 59.0162C217.744 59.0249 217.56 58.8573 217.551 58.6406C217.541 58.4239 217.71 58.2404 217.928 58.231C220.051 58.1392 221.843 58.488 224.208 60.5029C224.374 60.6445 224.393 60.892 224.25 61.0573C224.173 61.1482 224.061 61.1949 223.95 61.1949L223.951 61.1941Z" fill="#2E2E2E"/>
<path d="M220.463 86.6151C218.702 86.6151 217.306 86.3194 216.005 85.6037C213.822 84.4025 212.66 82.824 212.239 80.4841C211.849 78.3149 212.077 75.5693 212.617 71.5987C211.791 71.2887 209.699 70.3319 210.059 68.6917C210.268 67.7373 211.27 67.0184 212.24 66.3241C212.475 66.1565 212.717 65.9825 212.939 65.8117C213.929 65.0501 214.337 64.0434 214.704 62.5615C215.19 60.6098 217.342 52.2978 217.364 52.2139C217.419 52.0036 217.633 51.8771 217.845 51.9316C218.056 51.9862 218.183 52.2005 218.128 52.4101C218.107 52.4939 215.955 60.802 215.471 62.7497C215.061 64.4001 214.594 65.5317 213.422 66.4332C213.189 66.6127 212.941 66.7907 212.702 66.9623C211.853 67.5704 210.976 68.1991 210.83 68.8594C210.553 70.1247 213.14 70.9487 213.166 70.9566L213.488 71.0546L213.443 71.386C212.897 75.3487 212.636 78.2295 213.016 80.3449C213.397 82.4579 214.405 83.8244 216.386 84.9149C218.644 86.1572 221.321 86.003 226.112 85.2201C226.327 85.1846 226.53 85.3301 226.565 85.5444C226.6 85.7587 226.455 85.9611 226.24 85.9959C223.895 86.3787 222.033 86.6143 220.462 86.6143L220.463 86.6151Z" fill="#2E2E2E"/>
<path d="M221.336 98.2357C221.295 98.2357 221.253 98.2294 221.212 98.216C221.005 98.1479 220.893 97.9257 220.961 97.7193C221.963 94.7025 222.173 90.085 222.342 86.3738L222.35 86.203C222.359 85.9863 222.546 85.8171 222.762 85.8282C222.979 85.8376 223.149 86.0219 223.138 86.2386L223.13 86.4094C222.96 90.168 222.748 94.8464 221.711 97.9661C221.656 98.1313 221.502 98.2357 221.336 98.2357Z" fill="#2E2E2E"/>
<path d="M254.062 176.467H201.743L201.751 176.065C201.753 175.994 201.888 168.883 200.208 156.621C200.101 155.841 199.894 154.738 199.654 153.462C199.049 150.238 198.22 145.823 197.906 141.103C197.891 140.886 198.056 140.699 198.273 140.685C198.493 140.671 198.679 140.834 198.694 141.051C199.005 145.724 199.829 150.113 200.43 153.317C200.672 154.604 200.881 155.715 200.99 156.515C202.454 167.202 202.546 174.01 202.544 175.681H253.665C253.67 173.622 253.895 163.369 257.344 137.229C257.372 137.014 257.572 136.863 257.787 136.89C258.003 136.919 258.156 137.116 258.127 137.332C254.247 166.742 254.455 175.974 254.457 176.064L254.468 176.468H254.062V176.467Z" fill="#2E2E2E"/>
<path d="M217.18 78.5211C216.763 78.5211 216.336 78.4768 215.906 78.3858C215.693 78.3408 215.557 78.132 215.601 77.9201C215.646 77.7074 215.855 77.5721 216.069 77.6164C218.221 78.0687 219.589 77.1672 220.213 76.59C220.373 76.4421 220.623 76.4508 220.772 76.6105C220.92 76.7695 220.911 77.0186 220.751 77.1657C219.794 78.0521 218.536 78.5203 217.181 78.5203L217.18 78.5211Z" fill="#2E2E2E"/>
<path d="M199.311 199.744C199.296 199.744 199.281 199.743 199.266 199.741C199.049 199.717 198.894 199.521 198.919 199.306C200.321 187.185 201.741 176.134 201.755 176.024C201.783 175.809 201.98 175.657 202.197 175.684C202.413 175.711 202.566 175.908 202.539 176.123C202.524 176.233 201.105 187.281 199.703 199.396C199.68 199.596 199.51 199.744 199.312 199.744H199.311Z" fill="#2E2E2E"/>
<path d="M259.683 199.744C259.507 199.744 259.347 199.627 259.301 199.449C259.261 199.298 255.304 184.175 253.675 176.151C253.632 175.938 253.77 175.731 253.984 175.688C254.198 175.644 254.406 175.783 254.449 175.995C256.075 183.997 260.025 199.099 260.065 199.251C260.12 199.461 259.993 199.676 259.783 199.73C259.749 199.739 259.716 199.743 259.683 199.743V199.744Z" fill="#2E2E2E"/>
<path d="M230.479 74.9746C230.112 74.9746 229.739 74.9319 229.366 74.8433C228.664 74.6773 228.026 74.3657 227.469 73.9189C227.299 73.7829 227.272 73.5354 227.409 73.3661C227.546 73.1969 227.794 73.1708 227.964 73.3068C228.43 73.6801 228.963 73.9395 229.549 74.0786C231.7 74.5895 233.868 73.2625 234.381 71.1203C234.895 68.9788 233.562 66.8207 231.41 66.3099C230.87 66.1818 230.323 66.1652 229.781 66.2608C229.567 66.2988 229.362 66.1565 229.324 65.9422C229.285 65.7286 229.428 65.5246 229.644 65.4867C230.292 65.3728 230.947 65.3918 231.593 65.5452C234.168 66.1565 235.764 68.7392 235.15 71.303C234.624 73.495 232.65 74.9738 230.479 74.9746Z" fill="#2E2E2E"/>
<path d="M232.202 71.1833C232.17 71.1833 232.137 71.1793 232.106 71.1714C231.894 71.1184 231.766 70.9049 231.819 70.6946C231.965 70.1141 231.868 69.5392 231.553 69.1169C231.24 68.6986 230.735 68.4527 230.129 68.4242C229.911 68.4139 229.743 68.2297 229.753 68.013C229.764 67.7963 229.948 67.6279 230.166 67.6389C231.013 67.6793 231.731 68.0375 232.187 68.6488C232.643 69.2609 232.789 70.077 232.585 70.8867C232.539 71.0655 232.379 71.1841 232.202 71.1841V71.1833Z" fill="#2E2E2E"/>
<path d="M173.65 155.281C169.786 155.281 163.691 150.188 155.526 140.136C149.419 132.616 144.344 124.961 144.294 124.884L144.072 124.548L159.376 115.046L159.597 115.28C159.696 115.383 169.507 125.727 174.594 130.296C174.756 130.442 174.768 130.69 174.622 130.851C174.476 131.013 174.227 131.025 174.065 130.88C169.384 126.675 160.74 117.624 159.245 116.053L145.178 124.787C146.223 126.343 150.785 133.048 156.144 139.646C164.129 149.476 170.224 154.61 173.767 154.493C177.517 154.369 182.564 152.118 188.766 147.805C194.71 143.672 199.735 139.014 201.619 137.202C201.776 137.051 202.026 137.056 202.178 137.212C202.329 137.367 202.325 137.617 202.168 137.768C200.27 139.592 195.208 144.285 189.218 148.45C182.889 152.851 177.698 155.148 173.793 155.278C173.746 155.28 173.698 155.281 173.65 155.281V155.281Z" fill="#2E2E2E"/>
<path d="M170.186 135.756C170.091 135.756 169.996 135.722 169.92 135.654C169.759 135.507 169.748 135.258 169.895 135.099C170.049 134.93 185.417 118.19 194.857 109.736C199.831 105.282 204.551 102.194 209.287 100.296C213.479 98.616 217.172 98.0142 221.221 97.4527L221.322 97.4385L221.417 97.4749C222.916 98.0498 225.772 98.6468 228.364 98.926C228.581 98.9497 228.737 99.1434 228.714 99.3593C228.69 99.5752 228.496 99.731 228.279 99.7081C225.68 99.4281 222.807 98.8311 221.229 98.2451C214.352 99.1988 206.551 100.321 195.385 110.32C185.974 118.747 170.632 135.46 170.478 135.628C170.4 135.713 170.293 135.756 170.186 135.756V135.756Z" fill="#2E2E2E"/>
<path d="M251.383 122.772C249.129 122.772 246.832 122.531 244.61 122.046C239.263 120.877 234.917 118.431 232.376 115.158C229.409 111.338 227.998 104.866 228.183 95.9226C228.373 86.7304 230.219 77.8553 231.004 74.4659C231.053 74.2548 231.265 74.1219 231.478 74.1709C231.69 74.22 231.822 74.4311 231.774 74.6423C228.609 88.3064 227.032 106.991 233.001 114.676C238.345 121.558 250.849 123.445 259.173 120.89C264.711 119.191 267.907 115.819 268.175 111.396C268.529 105.534 266.145 100.983 263.621 96.1638C261.652 92.4059 259.616 88.5199 258.461 83.5427C257.558 79.6543 257.754 74.9009 257.96 69.8682C258.287 61.9113 258.625 53.683 254.519 48.4836C248.081 40.332 240.482 40.3154 232.61 41.0485C230.717 41.2248 228.82 41.1007 226.986 40.9805C222.426 40.6816 218.486 40.4238 216.361 44.8609C215.342 46.9882 215.722 49.5899 217.306 51.3352C218.698 52.8685 220.764 53.6474 222.762 54.4019C224.838 55.1855 226.8 55.9257 228.024 57.4512C229.776 59.6353 230.061 64.4402 230.106 65.8605C230.113 66.0772 229.941 66.259 229.724 66.2662C229.506 66.2733 229.323 66.1025 229.316 65.8858C229.226 63.0848 228.678 59.5262 227.406 57.9423C226.317 56.5853 224.455 55.8822 222.481 55.1373C220.396 54.3505 218.239 53.5367 216.72 51.8626C214.923 49.8841 214.492 46.9344 215.648 44.5225C218.004 39.6045 222.392 39.8924 227.038 40.196C228.841 40.3138 230.706 40.4364 232.537 40.2656C236.192 39.9248 240.084 39.6694 243.953 40.5875C248.369 41.6353 252.029 44.0591 255.139 47.9972C259.426 53.4252 259.082 61.8005 258.749 69.8999C258.545 74.8779 258.351 79.58 259.23 83.3655C260.363 88.2455 262.375 92.0856 264.321 95.8C266.897 100.718 269.331 105.363 268.963 111.443C268.813 113.931 267.823 116.105 266.023 117.904C264.389 119.537 262.163 120.795 259.405 121.641C256.959 122.391 254.205 122.77 251.381 122.77L251.383 122.772Z" fill="#2E2E2E"/>
<path d="M323.269 200H0.731429C0.327533 200 0 199.776 0 199.5C0 199.224 0.327533 199 0.731429 199H323.269C323.672 199 324 199.224 324 199.5C324 199.776 323.672 200 323.269 200H323.269Z" fill="#2E2E2E"/>
</svg>
